<svg width="125" height="124" viewBox="0 0 125 124" fill="none" xmlns="http://www.w3.org/2000/svg">
<path d="M124.5 62C124.5 94.1589 100.019 120.596 68.729 123.638C68.4393 123.71 68.2944 123.71 68.0047 123.71C67.5701 123.783 67.0631 123.783 66.5561 123.783C65.1799 123.855 63.8762 123.928 62.5 123.928C30.8481 123.928 4.70093 100.243 0.934579 69.5327C0.71729 67.6495 0.57243 65.6939 0.5 63.7383C0.5 63.1589 0.5 62.6519 0.5 62C0.5 57.9439 0.934579 53.9603 1.65888 50.0491C7.23598 21.5117 32.2967 0 62.5 0C96.7593 0 124.5 27.7407 124.5 62Z" fill="#5551FF"/>
<path d="M31.21 102.778L55.981 123.638C56.2707 123.71 56.4156 123.71 56.7053 123.71C57.1399 123.783 57.6469 123.783 58.1539 123.783C59.5301 123.855 60.8338 123.927 62.21 123.927C93.8618 123.927 120.009 100.243 123.775 69.5326C123.993 67.6494 124.138 65.6938 124.21 63.7382C124.21 63.1587 124.21 62.6517 124.21 61.9999C124.21 57.9438 123.775 53.9601 123.051 50.0489L94.8034 21.8013L31.21 102.778Z" fill="#3E3AC0"/>
<path d="M29.9067 32.4485V99.0116C29.9067 101.981 32.2969 104.371 35.2665 104.371H88.0679C91.0375 104.371 93.4277 101.981 93.4277 99.0116V24.9882C93.4277 22.0186 91.0375 19.6284 88.0679 19.6284H42.7268C42.3647 19.6284 41.9301 19.6284 41.5679 19.7733C40.5539 19.9906 39.6847 20.4251 38.9604 21.1494L31.5002 28.6097C30.7034 29.4065 30.124 30.5653 30.0516 31.7242C29.9067 32.0139 29.9067 32.2312 29.9067 32.4485Z" fill="#656565"/>
<path d="M31.6452 32.4485V99.0116C31.6452 101.981 34.0353 104.371 37.005 104.371H89.7339C92.7036 104.371 95.0938 101.981 95.0938 99.0116V24.9882C95.0938 22.0186 92.7036 19.6284 89.7339 19.6284H44.3928C44.0307 19.6284 43.5961 19.6284 43.2339 19.7733C42.2199 19.9906 41.3508 20.4251 40.6265 21.1494L33.1662 28.6097C32.3695 29.4065 31.79 30.5653 31.7176 31.7242C31.6452 32.0139 31.6452 32.2312 31.6452 32.4485Z" fill="white"/>
<path d="M31.718 31.7966H38.3091C41.0615 31.7966 43.2344 29.6237 43.2344 26.8714V19.8457C42.2204 20.063 41.3512 20.4976 40.6269 21.2219L33.1666 28.6822C32.2975 29.4789 31.7905 30.6378 31.718 31.7966Z" fill="#D0D0D0"/>
<path d="M83.4324 88.3642L48.5212 88.3642C47.652 88.3642 46.9277 87.7847 46.9277 86.988C46.9277 86.1913 47.652 85.6118 48.5212 85.6118L83.4324 85.6118C84.3016 85.6118 85.0259 86.1913 85.0259 86.988C85.0259 87.7847 84.3016 88.3642 83.4324 88.3642Z" fill="#D0D0D0"/>
<path d="M83.4324 56.5675L48.5212 56.5675C47.652 56.5675 46.9277 55.9881 46.9277 55.1914C46.9277 54.3946 47.652 53.8152 48.5212 53.8152L83.4324 53.8152C84.3016 53.8152 85.0259 54.3946 85.0259 55.1914C85.0259 55.9881 84.3016 56.5675 83.4324 56.5675Z" fill="#D0D0D0"/>
<path d="M83.4324 67.1423L48.5212 67.1423C47.652 67.1423 46.9277 66.5629 46.9277 65.7661C46.9277 64.9694 47.652 64.4624 48.5212 64.4624L83.4324 64.4624C84.3016 64.4624 85.0259 65.0418 85.0259 65.8386C85.0259 66.6353 84.3016 67.1423 83.4324 67.1423Z" fill="#D0D0D0"/>
<path d="M83.4324 77.7894L48.5212 77.7894C47.652 77.7894 46.9277 77.21 46.9277 76.4133C46.9277 75.6166 47.652 75.0371 48.5212 75.0371L83.4324 75.0371C84.3016 75.0371 85.0259 75.6166 85.0259 76.4133C85.0259 77.21 84.3016 77.7894 83.4324 77.7894Z" fill="#D0D0D0"/>
<path d="M44.6825 56.5675L40.9886 56.5675C40.9162 56.5675 40.8437 55.9881 40.8437 55.1914C40.8437 54.3946 40.9162 53.8152 40.9886 53.8152L44.6825 53.8152C44.755 53.8876 44.8274 54.4671 44.8274 55.2638C44.8274 56.0605 44.755 56.5675 44.6825 56.5675Z" fill="#D0D0D0"/>
<path d="M44.6825 67.1423L40.9886 67.1423C40.9162 67.1423 40.8437 66.5629 40.8437 65.7661C40.8437 64.9694 40.9162 64.4624 40.9886 64.4624L44.6825 64.4624C44.755 64.4624 44.8274 65.1143 44.8274 65.8386C44.8274 66.5629 44.755 67.1423 44.6825 67.1423Z" fill="#D0D0D0"/>
<path d="M44.7548 77.7894L41.0609 77.7894C40.9884 77.7894 40.916 77.21 40.916 76.4133C40.916 75.6166 40.9884 75.0371 41.0609 75.0371L44.7548 75.0371C44.8272 75.0371 44.8997 75.6166 44.8997 76.4133C44.8997 77.21 44.8272 77.7894 44.7548 77.7894Z" fill="#D0D0D0"/>
<path d="M44.7548 88.3642L41.0609 88.3642C40.9884 88.3642 40.916 87.7847 40.916 86.988C40.916 86.1913 40.9884 85.6118 41.0609 85.6118L44.7548 85.6118C44.8272 85.6118 44.8997 86.1913 44.8997 86.988C44.8997 87.7847 44.8272 88.3642 44.7548 88.3642Z" fill="#D0D0D0"/>
<path d="M73.1474 44.3225C73.1474 44.6122 73.075 44.8295 72.8577 45.1192C72.4955 45.5538 71.6988 45.6262 71.1918 45.1917L54.0259 30.7781C53.5189 30.3435 53.4465 29.6192 53.8811 29.1122C54.3156 28.6052 55.0399 28.5328 55.5469 28.9674L72.7128 43.3809C73.0026 43.5982 73.1474 43.9604 73.1474 44.3225Z" fill="#5551FF"/>
<path d="M74.9579 33.8199C74.9579 36.2825 72.9298 38.3105 70.4672 38.3105C68.0046 38.3105 65.9766 36.2825 65.9766 33.8199C65.9766 31.3573 68.0046 29.3292 70.4672 29.3292C72.9298 29.3292 74.9579 31.3573 74.9579 33.8199ZM68.3667 33.8199C68.3667 34.9788 69.3083 35.9204 70.4672 35.9204C71.6261 35.9204 72.5677 34.9788 72.5677 33.8199C72.5677 32.661 71.6261 31.7194 70.4672 31.7194C69.3083 31.7194 68.3667 32.661 68.3667 33.8199Z" fill="#5551FF"/>
<path d="M60.7626 40.4112C60.7626 42.8738 58.7345 44.9019 56.2719 44.9019C53.8093 44.9019 51.7812 42.8738 51.7812 40.4112C51.7812 37.9486 53.8093 35.9205 56.2719 35.9205C58.7345 35.9205 60.7626 37.9486 60.7626 40.4112ZM54.1714 40.4112C54.1714 41.5701 55.113 42.5117 56.2719 42.5117C57.4308 42.5117 58.3724 41.5701 58.3724 40.4112C58.3724 39.2523 57.4308 38.3107 56.2719 38.3107C55.113 38.3107 54.1714 39.2523 54.1714 40.4112Z" fill="#5551FF"/>
</svg>
