<svg width="149" height="149" viewBox="0 0 149 149" fill="none" xmlns="http://www.w3.org/2000/svg">
<g clip-path="url(#clip0_4994_14794)">
<path d="M149 74.5C149 112.883 119.583 144.437 81.9848 148.068C81.6367 148.154 81.4626 148.154 81.1145 148.154C80.5923 148.241 79.9831 148.241 79.3738 148.241C77.7202 148.327 76.1536 148.414 74.5 148.414C36.4667 148.414 5.0479 120.145 0.522196 83.4907C0.261098 81.243 0.0870327 78.9089 0 76.5748C0 75.8832 0 75.278 0 74.5C0 69.6589 0.522196 64.9042 1.39252 60.236C8.09404 26.1752 38.2074 0.5 74.5 0.5C115.666 0.5 149 33.6098 149 74.5Z" fill="#5551FF"/>
<path d="M111.75 123.171L81.9848 148.068C81.6367 148.154 81.4626 148.154 81.1145 148.154C80.5923 148.241 79.9831 148.241 79.3738 148.241C77.7202 148.327 76.1536 148.414 74.5 148.414C36.4667 148.414 5.0479 120.145 0.522196 83.4906C0.261098 81.243 0.0870327 78.9088 0 76.5747C0 75.8831 0 75.278 0 74.5C0 69.6588 0.522196 64.9042 1.39252 60.2359L35.3353 26.521L111.75 123.171Z" fill="#3E3AC0"/>
<path d="M113.664 39.2289V118.675C113.664 122.22 110.792 125.072 107.224 125.072H43.7771C40.2088 125.072 37.3367 122.22 37.3367 118.675V30.3247C37.3367 26.7803 40.2088 23.9275 43.7771 23.9275H98.2596C98.6947 23.9275 99.2169 23.9275 99.6521 24.1004C100.871 24.3597 101.915 24.8784 102.785 25.7429L111.75 34.6471C112.707 35.5981 113.403 36.9812 113.49 38.3644C113.664 38.7102 113.664 38.9695 113.664 39.2289Z" fill="#656565"/>
<path d="M111.576 39.2289V118.675C111.576 122.22 108.704 125.072 105.135 125.072H41.7754C38.207 125.072 35.335 122.22 35.335 118.675V30.3247C35.335 26.7803 38.207 23.9275 41.7754 23.9275H96.2579C96.693 23.9275 97.2152 23.9275 97.6504 24.1004C98.8688 24.3597 99.9132 24.8784 100.784 25.7429L109.748 34.6471C110.705 35.5981 111.402 36.9812 111.489 38.3644C111.576 38.7102 111.576 38.9695 111.576 39.2289Z" fill="white"/>
<path d="M104.44 107.081C104.44 108.941 102.887 110.462 100.989 110.462H68.204C66.3059 110.462 64.7529 108.941 64.7529 107.081V68.1987C64.7529 66.3391 66.3059 64.8176 68.204 64.8176H100.989C102.887 64.8176 104.44 66.3391 104.44 68.1987V107.081Z" fill="#9466FF"/>
<path d="M72.0632 82.4532V71.042H99.2174" stroke="#7851D1" stroke-width="2"/>
<path d="M42.8203 58.5933V47.1821H50.1311V58.5933" fill="#7EB3FF"/>
<path d="M54.3086 58.5933V38.8831H61.6193V58.5933" fill="#9466FF"/>
<path d="M66.8418 58.5933V44.0699H74.1525V58.5933" fill="#FD2227"/>
<path d="M42.8203 66.8925H60.575" stroke="#7EB3FF" stroke-width="2"/>
<path d="M42.8203 73.1167H60.575" stroke="#7EB3FF" stroke-width="2"/>
<path d="M42.8203 80.3784H54.3086" stroke="#7EB3FF" stroke-width="2"/>
<path d="M99.2172 73.1167H73.1074V83.4905H99.2172V73.1167Z" fill="#7EB3FF"/>
<path d="M77.2854 86.6027H69.9746V93.8643H77.2854V86.6027Z" fill="#7EB3FF"/>
<path d="M88.7736 86.6027H81.4629V93.8643H88.7736V86.6027Z" fill="#7EB3FF"/>
<path d="M99.2175 86.6027H92.9512V93.8643H99.2175V86.6027Z" fill="#7EB3FF"/>
<path d="M77.2854 96.9766H69.9746V104.238H77.2854V96.9766Z" fill="#7EB3FF"/>
<path d="M88.7736 96.9766H81.4629V104.238H88.7736V96.9766Z" fill="#7EB3FF"/>
<path d="M99.2175 86.6027H92.9512V104.238H99.2175V86.6027Z" fill="#B2D2EA"/>
<path d="M49.0742 84.783V88.1842" stroke="#7EB3FF" stroke-width="2"/>
<path d="M49.0742 105.191V108.592" stroke="#7EB3FF" stroke-width="2"/>
<path d="M49.9299 96.6874H48.2178C45.8208 96.6874 43.9375 94.8167 43.9375 92.4358C43.9375 90.0549 45.8208 88.1842 48.2178 88.1842H49.9299C52.3269 88.1842 54.2102 90.0549 54.2102 92.4358" stroke="#7EB3FF" stroke-width="2"/>
<path d="M48.2178 96.6874H49.9299C52.3269 96.6874 54.2102 98.5581 54.2102 100.939C54.2102 103.32 52.3269 105.191 49.9299 105.191H48.2178C45.8208 105.191 43.9375 103.32 43.9375 100.939" stroke="#7EB3FF" stroke-width="2"/>
<path d="M111.489 38.4509H103.569C100.261 38.4509 97.6504 35.8574 97.6504 32.5724V24.1869C98.8688 24.4462 99.9132 24.9649 100.784 25.8294L109.748 34.7336C110.792 35.6846 111.402 37.0677 111.489 38.4509Z" fill="#9B9B9B"/>
</g>
<defs>
<clipPath id="clip0_4994_14794">
<rect width="149" height="148" fill="white" transform="translate(0 0.5)"/>
</clipPath>
</defs>
</svg>
