<svg width="125" height="124" viewBox="0 0 125 124" fill="none" xmlns="http://www.w3.org/2000/svg">
<path d="M124.5 62C124.5 94.1589 100.019 120.596 68.729 123.638C68.4393 123.71 68.2944 123.71 68.0047 123.71C67.5701 123.783 67.0631 123.783 66.5561 123.783C65.1799 123.855 63.8762 123.928 62.5 123.928C30.8481 123.928 4.70093 100.243 0.934579 69.5327C0.71729 67.6495 0.57243 65.6939 0.5 63.7383C0.5 63.1589 0.5 62.6519 0.5 62C0.5 57.9439 0.934579 53.9603 1.65888 50.0491C7.23598 21.5117 32.2967 0 62.5 0C96.7593 0 124.5 27.7407 124.5 62Z" fill="#5551FF"/>
<path d="M93.5 102.778L68.729 123.638C68.4393 123.71 68.2944 123.71 68.0047 123.71C67.5701 123.783 67.0631 123.783 66.5561 123.783C65.1799 123.855 63.8762 123.927 62.5 123.927C30.8481 123.927 4.70093 100.243 0.934579 69.5326C0.71729 67.6494 0.57243 65.6938 0.5 63.7382C0.5 63.1587 0.5 62.6517 0.5 61.9999C0.5 57.9438 0.934579 53.9601 1.65888 50.0489L29.9065 21.8013L93.5 102.778Z" fill="#3E3AC0"/>
<path d="M95.0933 32.4485V99.0116C95.0933 101.981 92.7031 104.371 89.7335 104.371H36.9321C33.9625 104.371 31.5723 101.981 31.5723 99.0116V24.9882C31.5723 22.0186 33.9625 19.6284 36.9321 19.6284H82.2732C82.6353 19.6284 83.0699 19.6284 83.4321 19.7733C84.4461 19.9906 85.3153 20.4251 86.0396 21.1494L93.4998 28.6097C94.2966 29.4065 94.876 30.5653 94.9484 31.7242C95.0933 32.0139 95.0933 32.2312 95.0933 32.4485Z" fill="#656565"/>
<path d="M93.3548 32.4485V99.0116C93.3548 101.981 90.9647 104.371 87.995 104.371H35.2661C32.2964 104.371 29.9062 101.981 29.9062 99.0116V24.9882C29.9062 22.0186 32.2964 19.6284 35.2661 19.6284H80.6072C80.9693 19.6284 81.4039 19.6284 81.7661 19.7733C82.7801 19.9906 83.6492 20.4251 84.3735 21.1494L91.8338 28.6097C92.6305 29.4065 93.21 30.5653 93.2824 31.7242C93.3548 32.0139 93.3548 32.2312 93.3548 32.4485Z" fill="white"/>
<path d="M82.5623 56.5675H47.6511C46.7819 56.5675 46.0576 55.9881 46.0576 55.1914C46.0576 54.3946 46.7819 53.8152 47.6511 53.8152H82.5623C83.4314 53.8152 84.1558 54.3946 84.1558 55.1914C84.1558 55.9881 83.4314 56.5675 82.5623 56.5675Z" fill="#9B9B9B"/>
<path d="M82.5623 67.1423H47.6511C46.7819 67.1423 46.0576 66.5629 46.0576 65.7661C46.0576 64.9694 46.7819 64.4624 47.6511 64.4624H82.5623C83.4314 64.4624 84.1558 65.0418 84.1558 65.8386C84.1558 66.6353 83.4314 67.1423 82.5623 67.1423Z" fill="#9B9B9B"/>
<path d="M82.5623 77.7897H47.6511C46.7819 77.7897 46.0576 77.2103 46.0576 76.4135C46.0576 75.6168 46.7819 75.0374 47.6511 75.0374H82.5623C83.4314 75.0374 84.1558 75.6168 84.1558 76.4135C84.1558 77.2103 83.4314 77.7897 82.5623 77.7897Z" fill="#9B9B9B"/>
<path d="M82.5623 88.3644H47.6511C46.7819 88.3644 46.0576 87.785 46.0576 86.9882C46.0576 86.1915 46.7819 85.6121 47.6511 85.6121H82.5623C83.4314 85.6121 84.1558 86.1915 84.1558 86.9882C84.1558 87.785 83.4314 88.3644 82.5623 88.3644Z" fill="#9B9B9B"/>
<path d="M43.8124 56.5675H40.1185C40.0461 56.5675 39.9736 55.9881 39.9736 55.1914C39.9736 54.3946 40.0461 53.8152 40.1185 53.8152H43.8124C43.8848 53.8876 43.9573 54.4671 43.9573 55.2638C43.9573 56.0605 43.8848 56.5675 43.8124 56.5675Z" fill="#9B9B9B"/>
<path d="M43.8124 67.1423H40.1185C40.0461 67.1423 39.9736 66.5629 39.9736 65.7661C39.9736 64.9694 40.0461 64.4624 40.1185 64.4624H43.8124C43.8848 64.4624 43.9573 65.1143 43.9573 65.8386C43.9573 66.5629 43.8848 67.1423 43.8124 67.1423Z" fill="#9B9B9B"/>
<path d="M43.8847 77.7897H40.1908C40.1183 77.7897 40.0459 77.2103 40.0459 76.4135C40.0459 75.6168 40.1183 75.0374 40.1908 75.0374H43.8847C43.9571 75.0374 44.0295 75.6168 44.0295 76.4135C44.0295 77.2103 43.9571 77.7897 43.8847 77.7897Z" fill="#9B9B9B"/>
<path d="M43.8847 88.3644H40.1908C40.1183 88.3644 40.0459 87.785 40.0459 86.9882C40.0459 86.1915 40.1183 85.6121 40.1908 85.6121H43.8847C43.9571 85.6121 44.0295 86.1915 44.0295 86.9882C44.0295 87.785 43.9571 88.3644 43.8847 88.3644Z" fill="#9B9B9B"/>
<path d="M93.282 31.7966H86.6909C83.9385 31.7966 81.7656 29.6237 81.7656 26.8714V19.8457C82.7796 20.063 83.6488 20.4976 84.3731 21.2219L91.8334 28.6822C92.7025 29.4789 93.2095 30.6378 93.282 31.7966Z" fill="#9B9B9B"/>
<path d="M100.529 104.661H85.2666C84.4703 104.661 83.9395 103.998 83.9395 103.334V92.7166C83.9395 91.9203 84.603 91.3894 85.2666 91.3894H100.529C101.326 91.3894 101.856 92.053 101.856 92.7166V103.334C101.856 104.13 101.326 104.661 100.529 104.661Z" fill="#E9E0FF"/>
<path d="M92.6983 97.3618C91.902 97.3618 91.3711 97.8927 91.3711 98.689C91.3711 99.4853 91.902 100.016 92.6983 100.016C93.4946 100.016 94.0255 99.4853 94.0255 98.689C94.0255 97.8927 93.4946 97.3618 92.6983 97.3618Z" fill="#7851D1"/>
<path d="M92.6987 102.803C92.3006 102.803 92.0352 102.538 92.0352 102.14V99.6179C92.0352 99.2198 92.3006 98.9543 92.6987 98.9543C93.0969 98.9543 93.3623 99.2198 93.3623 99.6179V102.14C93.3623 102.538 93.0969 102.803 92.6987 102.803Z" fill="#7851D1"/>
<path d="M98.9363 89.2659V91.3894H96.8129V89.2659C96.8129 86.3461 95.0875 84.0899 92.964 84.0899C90.8405 84.0899 89.1152 86.3461 89.1152 89.1332V91.5221H86.9917V89.1332C87.1244 85.0189 89.7788 81.7009 92.964 81.7009C96.282 81.7009 98.9363 85.0189 98.9363 89.1332V89.2659Z" fill="#E9E0FF"/>
<path d="M57.5486 22.251H38.7716C38.5641 22.251 38.3651 22.3334 38.2184 22.4801C38.0717 22.6269 37.9893 22.8259 37.9893 23.0333V41.8103C37.9899 41.9392 38.0224 42.0659 38.0838 42.1791C38.1453 42.2924 38.2337 42.3888 38.3413 42.4597C38.4477 42.5298 38.5696 42.5728 38.6964 42.5851C38.8232 42.5974 38.9511 42.5785 39.0689 42.5301L48.1601 38.7434L57.2513 42.5301C57.3698 42.5788 57.4985 42.5976 57.626 42.5849C57.7535 42.5723 57.876 42.5285 57.9826 42.4574C58.0892 42.3863 58.1767 42.2901 58.2375 42.1773C58.2982 42.0645 58.3303 41.9384 58.331 41.8103V23.0333C58.331 22.8259 58.2485 22.6269 58.1018 22.4801C57.9551 22.3334 57.7561 22.251 57.5486 22.251Z" fill="#9466FF"/>
<path d="M49.7249 37.1787L40.6337 40.9653C40.5158 41.0137 40.3879 41.0326 40.2611 41.0203C40.1343 41.0081 40.0125 40.965 39.9061 40.8949C39.7984 40.824 39.71 40.7277 39.6486 40.6144C39.5872 40.5011 39.5547 40.3744 39.554 40.2456V22.251H38.7716C38.5641 22.251 38.3651 22.3334 38.2184 22.4801C38.0717 22.6269 37.9893 22.8259 37.9893 23.0333V41.8103C37.9899 41.9392 38.0224 42.0659 38.0838 42.1791C38.1453 42.2924 38.2337 42.3888 38.3413 42.4597C38.4477 42.5298 38.5696 42.5728 38.6964 42.5851C38.8232 42.5974 38.9511 42.5785 39.0689 42.5301L48.1601 38.7434L57.2513 42.5301C57.3698 42.5788 57.4985 42.5976 57.626 42.5849C57.7535 42.5723 57.876 42.5285 57.9826 42.4574C58.0892 42.3863 58.1767 42.2901 58.2375 42.1773C58.2982 42.0645 58.3303 41.9384 58.331 41.8103V40.7697L49.7249 37.1787Z" fill="#7851D1"/>
<path d="M59.1136 19.1216H37.2072C36.9997 19.1216 36.8007 19.204 36.654 19.3507C36.5072 19.4975 36.4248 19.6965 36.4248 19.904V22.2511C36.4248 22.6661 36.5897 23.0641 36.8831 23.3575C37.1766 23.651 37.5746 23.8158 37.9896 23.8158H58.3312C58.7462 23.8158 59.1442 23.651 59.4377 23.3575C59.7311 23.0641 59.896 22.6661 59.896 22.2511V19.904C59.896 19.6965 59.8136 19.4975 59.6668 19.3507C59.5201 19.204 59.3211 19.1216 59.1136 19.1216Z" fill="#5A5A5A"/>
<path d="M37.9896 22.2511V19.904C37.9896 19.6965 38.072 19.4975 38.2187 19.3507C38.3654 19.204 38.5644 19.1216 38.7719 19.1216H37.2072C36.9997 19.1216 36.8007 19.204 36.654 19.3507C36.5072 19.4975 36.4248 19.6965 36.4248 19.904V22.2511C36.4248 22.6661 36.5897 23.0641 36.8831 23.3575C37.1766 23.651 37.5746 23.8158 37.9896 23.8158H39.5543C39.1393 23.8158 38.7413 23.651 38.4479 23.3575C38.1544 23.0641 37.9896 22.6661 37.9896 22.2511Z" fill="#4C4C4C"/>
<path d="M53.5585 29.4958C53.4575 29.1806 53.2593 28.9056 52.9922 28.7102C52.7251 28.5148 52.4029 28.4091 52.0719 28.4083H50.2255L49.6544 26.6714C49.5554 26.3525 49.3569 26.0737 49.088 25.8757C48.8192 25.6776 48.494 25.5708 48.1601 25.5708C47.8262 25.5708 47.501 25.6776 47.2321 25.8757C46.9633 26.0737 46.7648 26.3525 46.6658 26.6714L46.0868 28.4161H44.2482C43.9122 28.4084 43.5826 28.5091 43.3083 28.7032C43.0339 28.8974 42.8294 29.1748 42.7249 29.4942C42.6205 29.8137 42.6217 30.1583 42.7284 30.4771C42.835 30.7958 43.0415 31.0717 43.3172 31.264L44.8037 32.3436L44.2482 34.0727C44.1374 34.3902 44.1319 34.735 44.2325 35.056C44.333 35.3769 44.5343 35.6569 44.8065 35.8544C45.0787 36.052 45.4073 36.1566 45.7436 36.1527C46.0799 36.1489 46.406 36.0368 46.6736 35.833L48.1601 34.769L49.6388 35.8408C49.9063 36.038 50.2296 36.1449 50.562 36.146C50.897 36.1465 51.2233 36.0396 51.493 35.8408C51.766 35.6469 51.9696 35.3704 52.0738 35.0522C52.178 34.7339 52.1774 34.3906 52.0719 34.0727L51.5086 32.328L52.9873 31.2561C53.2574 31.0616 53.4583 30.786 53.561 30.4695C53.6637 30.1529 53.6628 29.8118 53.5585 29.4958Z" fill="#FFF5F5"/>
<path d="M51.0082 29.1828H52.8546C53.0766 29.1862 53.2952 29.2369 53.4961 29.3314C53.3727 29.0569 53.1728 28.8238 52.9202 28.66C52.6676 28.4963 52.3732 28.4088 52.0722 28.4082H50.75L51.0082 29.1828Z" fill="#EFE2DD"/>
<path d="M43.5441 30.2779C43.645 29.9628 43.8433 29.6877 44.1104 29.4923C44.3775 29.2969 44.6997 29.1912 45.0306 29.1904H46.8535L47.4325 27.4457C47.5346 27.1267 47.7364 26.8489 48.0082 26.6531C48.2801 26.4574 48.6075 26.354 48.9425 26.3582C49.1618 26.3628 49.3777 26.4135 49.5762 26.5069C49.446 26.2203 49.2323 25.9796 48.9632 25.8163C48.694 25.653 48.3819 25.5747 48.0676 25.5916C47.7532 25.6085 47.4513 25.7198 47.2012 25.911C46.9511 26.1023 46.7645 26.3644 46.6658 26.6634L46.0868 28.4081H44.2482C43.9122 28.4003 43.5826 28.501 43.3083 28.6952C43.0339 28.8893 42.8294 29.1667 42.7249 29.4862C42.6205 29.8056 42.6217 30.1503 42.7284 30.469C42.835 30.7877 43.0415 31.0636 43.3172 31.2559L43.6458 31.4984C43.5476 31.3123 43.488 31.1083 43.4706 30.8985C43.4531 30.6888 43.4781 30.4778 43.5441 30.2779Z" fill="#EFE2DD"/>
<path d="M45.0307 34.8552L45.6019 33.1183L44.7569 32.5081L44.2484 34.0728C44.1781 34.2535 44.1445 34.4464 44.1494 34.6402C44.1543 34.834 44.1977 35.0249 44.2771 35.2018C44.3564 35.3787 44.4701 35.538 44.6116 35.6706C44.7531 35.8032 44.9195 35.9063 45.1012 35.974C44.9403 35.6225 44.9152 35.224 45.0307 34.8552Z" fill="#EFE2DD"/>
</svg>
