<svg width="125" height="124" viewBox="0 0 125 124" fill="none" xmlns="http://www.w3.org/2000/svg">
<path d="M124.5 62C124.5 94.3762 99.6565 121.03 68.0047 123.71C67.5701 123.783 67.0631 123.783 66.5561 123.783C65.1799 123.855 63.8762 123.928 62.5 123.928C30.8481 123.928 4.70093 100.243 0.934579 69.5327C0.71729 67.6495 0.57243 65.6939 0.5 63.7383C0.5 63.1589 0.5 62.6519 0.5 62C0.5 27.7407 28.2407 0 62.5 0C96.7593 0 124.5 27.7407 124.5 62Z" fill="#5551FF"/>
<path d="M93.7897 96.5492L66.5561 123.855C65.1799 123.928 63.8762 124 62.5 124C30.8481 124 4.70093 100.316 0.93457 69.6052L29.0374 41.5024L93.7897 96.5492Z" fill="#3E3AC0"/>
<path d="M93.1377 44.6169V76.9206C93.1377 79.3832 91.1097 81.4113 88.5747 81.4113H32.6588C30.1237 81.4113 28.0957 79.3832 28.0957 76.9206V44.6169C28.0957 42.1543 30.1237 40.1262 32.6588 40.1262H88.5747C91.1097 40.1262 93.1377 42.1543 93.1377 44.6169Z" fill="#4FA3A5"/>
<path d="M93.1376 66.4907H28.168V72.2127H93.1376V66.4907Z" fill="white"/>
<path d="M83.7943 50.7734C85.3144 50.7734 86.5467 49.5736 86.5467 48.0935C86.5467 46.6134 85.3144 45.4136 83.7943 45.4136C82.2743 45.4136 81.042 46.6134 81.042 48.0935C81.042 49.5736 82.2743 50.7734 83.7943 50.7734Z" fill="white"/>
<path d="M81.1142 51.063C79.4483 51.063 78.1445 49.7593 78.1445 48.0934C78.1445 46.4999 79.4483 45.1238 81.1142 45.1238C82.78 45.1238 84.0838 46.4275 84.0838 48.0934C84.0838 49.6869 82.7076 51.063 81.1142 51.063ZM81.1142 45.6308C79.738 45.6308 78.6515 46.7172 78.6515 48.0934C78.6515 49.3971 79.738 50.556 81.1142 50.556C82.4903 50.556 83.5768 49.4696 83.5768 48.0934C83.5768 46.7172 82.4179 45.6308 81.1142 45.6308Z" fill="white"/>
<path d="M43.958 47.007H36.5702C36.1356 47.007 35.7734 46.6449 35.7734 46.2103C35.7734 45.7757 36.1356 45.4136 36.5702 45.4136H43.958C44.3926 45.4136 44.7547 45.7757 44.7547 46.2103C44.7547 46.6449 44.3926 47.007 43.958 47.007Z" fill="white"/>
<path d="M49.4627 50.7734H36.5702C36.1356 50.7734 35.7734 50.4112 35.7734 49.9767C35.7734 49.5421 36.1356 49.1799 36.5702 49.1799H49.4627C49.8973 49.1799 50.2594 49.5421 50.2594 49.9767C50.2594 50.4112 49.8973 50.7734 49.4627 50.7734Z" fill="white"/>
<path d="M96.1797 94.5935L87.9227 99.4463L79.6657 94.5935C74.3783 91.479 71.1914 86.264 71.1914 80.6869V65.3318L87.9227 60.479L104.654 65.3318V80.6869C104.654 86.264 101.54 91.479 96.1797 94.5935Z" fill="white"/>
<path d="M94.9485 92.4207L87.9228 96.5492L80.8971 92.4207C76.4065 89.7408 73.7266 85.3226 73.7266 80.6146V67.5772L87.9953 63.4487L102.264 67.5772V80.6146C102.192 85.3226 99.5116 89.7408 94.9485 92.4207Z" fill="#9466FF"/>
<path d="M92.4864 83.9464H84.1569C83.7223 83.9464 83.4326 83.5842 83.4326 83.2221V77.4277C83.4326 76.9931 83.7948 76.7034 84.1569 76.7034H92.4864C92.9209 76.7034 93.2107 77.0655 93.2107 77.4277V83.2221C93.2107 83.6566 92.9209 83.9464 92.4864 83.9464Z" fill="white"/>
<path d="M88.2126 79.9629C87.778 79.9629 87.4883 80.2526 87.4883 80.6872C87.4883 81.1218 87.778 81.4115 88.2126 81.4115C88.6472 81.4115 88.9369 81.1218 88.9369 80.6872C88.9369 80.2526 88.6472 79.9629 88.2126 79.9629Z" fill="#F39325"/>
<path d="M88.2127 82.9325C87.9954 82.9325 87.8506 82.7876 87.8506 82.5703V81.1942C87.8506 80.9769 87.9954 80.832 88.2127 80.832C88.43 80.832 88.5749 80.9769 88.5749 81.1942V82.5703C88.5749 82.7876 88.43 82.9325 88.2127 82.9325Z" fill="#F39325"/>
<path d="M91.6173 75.5445V76.7034H90.4584V75.5445C90.4584 73.9511 89.5169 72.7198 88.358 72.7198C87.1991 72.7198 86.2575 73.9511 86.2575 75.4721V76.7758H85.0986V75.4721C85.1711 73.2268 86.6197 71.416 88.358 71.416C90.1687 71.416 91.6173 73.2268 91.6173 75.4721V75.5445Z" fill="white"/>
</svg>
