<svg width="125" height="124" viewBox="0 0 125 124" fill="none" xmlns="http://www.w3.org/2000/svg">
<path d="M124.5 62C124.5 94.1589 100.019 120.596 68.729 123.638C68.4393 123.71 68.2944 123.71 68.0047 123.71C67.5701 123.783 67.0631 123.783 66.5561 123.783C65.1799 123.855 63.8762 123.928 62.5 123.928C30.8481 123.928 4.70093 100.243 0.934579 69.5327C0.71729 67.6495 0.57243 65.6939 0.5 63.7383C0.5 63.1589 0.5 62.6519 0.5 62C0.5 57.9439 0.934579 53.9603 1.65888 50.0491C7.23598 21.5117 32.2967 0 62.5 0C96.7593 0 124.5 27.7407 124.5 62Z" fill="#5551FF"/>
<path d="M97.6145 92.8575L69.729 123.206C67.5561 123.495 65.3107 123.568 63.1378 123.568C31.1963 123.568 4.90421 99.4486 1.5 68.3762L30.2547 36L97.6145 92.8575Z" fill="#3E3AC0"/>
<path d="M89.9439 42.5886V71.4881C89.9439 76.0512 86.2499 79.7451 81.6869 79.7451H35.549C30.9859 79.7451 27.292 76.0512 27.292 71.4881V42.5886C27.292 38.0255 30.9859 34.3315 35.549 34.3315H81.6144C86.2499 34.3315 89.9439 38.0255 89.9439 42.5886Z" fill="white"/>
<path d="M89.9437 42.5886H27.3643C27.3643 38.0255 31.0582 34.3315 35.6213 34.3315H81.6867C86.2498 34.3315 89.9437 38.0255 89.9437 42.5886Z" fill="#00A7A4"/>
<path d="M58.509 72.5022C52.2076 72.5022 46.6305 68.0115 45.3267 61.855C45.1819 61.1307 45.6165 60.4788 46.2683 60.334C46.9202 60.1891 47.6445 60.6237 47.7894 61.2756C48.8758 66.2732 53.3665 69.8947 58.509 69.8947C64.5207 69.8947 69.4459 64.9695 69.4459 58.9578C69.4459 52.9461 64.5207 48.0209 58.509 48.0209C55.1772 48.0209 52.0627 49.4695 50.0347 52.077C49.5277 52.6564 48.7309 52.7288 48.2239 52.2942C47.6445 51.8597 47.5721 51.0629 48.0066 50.4835C50.6141 47.2966 54.3805 45.4858 58.509 45.4858C65.9693 45.4858 71.9809 51.4975 71.9809 58.9578C71.9809 66.4181 65.8968 72.5022 58.509 72.5022Z" fill="#9466FF"/>
<path d="M47.8614 54.1777C47.5716 54.1777 47.3544 54.1053 47.1371 53.9604C46.7749 53.7431 46.6301 53.4534 46.5576 53.0913C46.123 49.1076 46.123 49.0352 46.123 48.9628C46.123 48.2385 46.7025 47.7314 47.3544 47.7314C48.0062 47.7314 48.5857 48.2385 48.5857 48.9628C48.5857 49.18 48.7305 50.4838 48.8754 51.4978L51.338 50.9908C51.9899 50.8459 52.7142 51.2805 52.859 52.0048C53.0039 52.6567 52.5693 53.381 51.845 53.5258L48.0787 54.1777C48.0062 54.1777 47.9338 54.1777 47.8614 54.1777Z" fill="#9466FF"/>
<path d="M98.6359 72.2849V91.6237C98.6359 93.1447 97.4046 94.3036 95.956 94.3036H62.928C61.4069 94.3036 60.248 93.0723 60.248 91.6237V72.2849C60.248 70.7639 61.4794 69.605 62.928 69.605H96.0284C97.477 69.605 98.6359 70.7639 98.6359 72.2849Z" fill="#00A7A4"/>
<path d="M98.6351 85.3945H60.1748V88.8712H98.6351V85.3945Z" fill="white"/>
<path d="M93.1306 75.9787C94.0106 75.9787 94.724 75.2653 94.724 74.3852C94.724 73.5052 94.0106 72.7917 93.1306 72.7917C92.2505 72.7917 91.5371 73.5052 91.5371 74.3852C91.5371 75.2653 92.2505 75.9787 93.1306 75.9787Z" fill="#9466FF"/>
<path d="M91.5371 76.1236C90.5956 76.1236 89.7988 75.3269 89.7988 74.3853C89.7988 73.4437 90.5956 72.647 91.5371 72.647C92.4787 72.647 93.2755 73.4437 93.2755 74.3853C93.2755 75.3269 92.4787 76.1236 91.5371 76.1236ZM91.5371 72.9367C90.7404 72.9367 90.0885 73.5886 90.0885 74.3853C90.0885 75.182 90.7404 75.8339 91.5371 75.8339C92.3339 75.8339 92.9857 75.182 92.9857 74.3853C92.9857 73.5886 92.3339 72.9367 91.5371 72.9367Z" fill="white"/>
<path d="M69.5188 73.7335H65.173C64.8833 73.7335 64.666 73.5162 64.666 73.2265C64.666 72.9368 64.8833 72.7195 65.173 72.7195H69.5188C69.8085 72.7195 70.0258 72.9368 70.0258 73.2265C70.0258 73.5162 69.8085 73.7335 69.5188 73.7335Z" fill="white"/>
<path d="M72.778 75.9789H65.2453C64.9556 75.9789 64.7383 75.7616 64.7383 75.4719C64.7383 75.1821 64.9556 74.9648 65.2453 74.9648H72.8504C73.1401 74.9648 73.3574 75.1821 73.3574 75.4719C73.285 75.7616 73.0677 75.9789 72.778 75.9789Z" fill="white"/>
<path d="M39.6052 39.112H36.9253C36.3459 39.112 35.8389 38.605 35.8389 38.0256V30.855C35.8389 30.2756 36.3459 29.7686 36.9253 29.7686H39.6052C40.1847 29.7686 40.6917 30.2756 40.6917 30.855V38.0256C40.7641 38.605 40.2571 39.112 39.6052 39.112Z" fill="white"/>
<path d="M80.1658 39.112H77.4859C76.9064 39.112 76.3994 38.605 76.3994 38.0256V30.855C76.3994 30.2756 76.9064 29.7686 77.4859 29.7686H80.1658C80.7452 29.7686 81.2522 30.2756 81.2522 30.855V38.0256C81.3246 38.605 80.8176 39.112 80.1658 39.112Z" fill="white"/>
</svg>
