<svg width="125" height="124" viewBox="0 0 125 124" fill="none" xmlns="http://www.w3.org/2000/svg">
<path d="M124.5 62C124.5 94.3762 99.6565 121.03 68.0047 123.71C67.5701 123.783 67.0631 123.783 66.5561 123.783C65.1799 123.855 63.8762 123.928 62.5 123.928C30.8481 123.928 4.70093 100.243 0.934579 69.5327C0.71729 67.6495 0.57243 65.6939 0.5 63.7383C0.5 63.1589 0.5 62.6519 0.5 62C0.5 27.7407 28.2407 0 62.5 0C96.7593 0 124.5 27.7407 124.5 62Z" fill="#5551FF"/>
<path d="M93.7897 96.5492L66.5561 123.855C65.1799 123.928 63.8762 124 62.5 124C30.8481 124 4.70093 100.316 0.93457 69.6052L29.0374 41.5024L93.7897 96.5492Z" fill="#3E3AC0"/>
<g clip-path="url(#clip0_4994_13637)">
<path d="M99.0849 90.3992V45.1761C99.0849 42.8524 97.2992 41.0649 95.1564 41.0649H29.0858C26.9429 41.0649 25.1572 42.8524 25.1572 45.1761V90.3992H99.0849Z" fill="#656565"/>
<path d="M95.3347 86.824V45.1759C95.3347 44.8184 95.1562 44.6396 94.9776 44.6396H28.9069C28.7284 44.6396 28.5498 44.8184 28.5498 45.1759V86.824H95.3347Z" fill="#F4F4F4"/>
<path d="M66.2277 89.1479H104.62V90.5779C104.62 92.9016 102.834 96.4766 100.692 96.4766H23.5496C21.4068 96.4766 19.6211 92.9016 19.6211 90.5779V89.1479H58.0135" fill="#D0D0D0"/>
<path d="M58.7276 87.0029C58.7276 82.1768 58.9061 79.3168 58.9061 74.4906C58.9061 73.0607 57.8347 71.2732 56.4062 70.5582C50.8705 68.4132 44.6206 68.4132 39.0849 70.5582C37.6564 71.0944 36.585 73.0607 36.585 74.4906C36.585 79.3168 36.7635 82.1768 36.7635 87.0029" fill="#9466FF"/>
<path d="M41.0488 59.297C41.0488 62.8719 43.9059 65.9106 47.6559 65.9106C51.2273 65.9106 54.263 63.0507 54.263 59.297C54.263 55.7221 51.4058 52.6833 47.6559 52.6833C43.9059 52.6833 41.0488 55.7221 41.0488 59.297Z" fill="#9466FF"/>
<path d="M95.6055 28.6821H102.748V62.6441H77.7485L67.0344 73.369V62.6441H59.8916V28.6821H72.3915H95.6055Z" fill="#9B9B9B"/>
<path d="M97.6562 26.9438H104.799V60.9058H79.7993L69.0852 71.6307V60.9058H61.9424V26.9438H74.4422H97.6562Z" fill="white"/>
<path d="M87.191 41.762V39.4284L85.1716 39.2489C85.037 38.4861 84.7678 37.7681 84.3639 37.1398L85.7101 35.5243L84.0946 33.8639L82.524 35.2102C81.8958 34.8063 81.2226 34.4922 80.5046 34.3127L80.3251 32.1587H78.0365L77.857 34.2229C77.0941 34.3576 76.421 34.6268 75.7927 35.0307L74.2221 33.6396L72.5617 35.2999L73.8631 36.8706C73.4592 37.4988 73.1451 38.1719 72.9656 38.9348L70.9014 39.1143V41.4478L72.9207 41.6273C73.0554 42.3902 73.3246 43.1082 73.7285 43.7365L72.3822 45.352L73.9977 47.0123L75.5684 45.6661C76.1966 46.07 76.8697 46.3841 77.5877 46.5636L77.7673 48.6727H80.0559L80.2354 46.6085C80.9983 46.4738 81.6714 46.2046 82.2996 45.8007L83.9151 47.1918L85.5306 45.5315L84.2293 43.9608C84.6331 43.3326 84.9473 42.6595 85.1268 41.8966L87.191 41.762Z" fill="#9466FF"/>
<circle cx="79.1582" cy="40.4158" r="2.1729" fill="white"/>
<path d="M95.9767 49.0178V47.6668L94.8076 47.5629C94.7297 47.1212 94.5738 46.7055 94.34 46.3418L95.1194 45.4065L94.1841 44.4453L93.2748 45.2247C92.9111 44.9908 92.5214 44.809 92.1057 44.7051L92.0018 43.458H90.6768L90.5728 44.6531C90.1312 44.731 89.7415 44.8869 89.3778 45.1207L88.4684 44.3154L87.5072 45.2766L88.2606 46.1859C88.0268 46.5497 87.8449 46.9394 87.741 47.381L86.5459 47.485V48.8359L87.715 48.9398C87.793 49.3815 87.9488 49.7972 88.1827 50.1609L87.4032 51.0962L88.3385 52.0575L89.2478 51.2781C89.6116 51.5119 90.0013 51.6938 90.417 51.7977L90.5209 53.0188H91.8459L91.9498 51.8237C92.3915 51.7457 92.7812 51.5898 93.1449 51.356L94.0802 52.1614L95.0155 51.2001L94.262 50.2908C94.4959 49.9271 94.6777 49.5374 94.7817 49.0957L95.9767 49.0178Z" fill="#9466FF"/>
<circle cx="96.1211" cy="46.4438" r="1.5" fill="white"/>
</g>
<defs>
<clipPath id="clip0_4994_13637">
<rect width="85.1776" height="69.5327" fill="white" transform="translate(19.6211 26.9438)"/>
</clipPath>
</defs>
</svg>
