<svg width="27" height="27" viewBox="0 0 27 27" fill="none" xmlns="http://www.w3.org/2000/svg">
<g id="compass-03">
<g id="Icon">
<path d="M13.5 24.75C19.7132 24.75 24.75 19.7132 24.75 13.5C24.75 7.2868 19.7132 2.25 13.5 2.25C7.2868 2.25 2.25 7.2868 2.25 13.5C2.25 19.7132 7.2868 24.75 13.5 24.75Z" stroke="white" stroke-width="2" stroke-linecap="round" stroke-linejoin="round"/>
<path d="M16.5624 9.29921C17.112 9.11601 17.3868 9.0244 17.5695 9.08957C17.7286 9.14628 17.8537 9.27143 17.9104 9.43046C17.9756 9.61321 17.884 9.88801 17.7008 10.4376L16.0273 15.4581C15.9751 15.6146 15.949 15.6929 15.9046 15.7579C15.8652 15.8155 15.8155 15.8652 15.7579 15.9046C15.6929 15.949 15.6146 15.9751 15.4581 16.0273L10.4376 17.7008C9.88801 17.884 9.61321 17.9756 9.43046 17.9104C9.27143 17.8537 9.14628 17.7286 9.08957 17.5695C9.0244 17.3868 9.116 17.112 9.29921 16.5624L10.9727 11.5419C11.0249 11.3854 11.051 11.3071 11.0954 11.2421C11.1348 11.1845 11.1845 11.1348 11.2421 11.0954C11.3071 11.051 11.3854 11.0249 11.5419 10.9727L16.5624 9.29921Z" stroke="white" stroke-width="2" stroke-linecap="round" stroke-linejoin="round"/>
</g>
</g>
</svg>
