<svg width="26" height="20" viewBox="0 0 26 20" fill="none" xmlns="http://www.w3.org/2000/svg">
<g clip-path="url(#clip0_5077_59)">
<path fill-rule="evenodd" clip-rule="evenodd" d="M0 0H37.0504V1.53848H0V0ZM0 3.07695H37.0504V4.61543H0V3.07695ZM0 6.15391H37.0504V7.69238H0V6.15391ZM0 9.23086H37.0504V10.7693H0V9.23086ZM0 12.3078H37.0504V13.8463H0V12.3078ZM0 15.3848H37.0504V16.9232H0V15.3848ZM0 18.4617H37.0504V20.0002H0V18.4617Z" fill="#BD3D44"/>
<path fill-rule="evenodd" clip-rule="evenodd" d="M0 1.53857H37.0504V3.07705H0V1.53857ZM0 4.61553H37.0504V6.154H0V4.61553ZM0 7.69248H37.0504V9.23096H0V7.69248ZM0 10.7694H37.0504V12.3079H0V10.7694ZM0 13.8464H37.0504V15.3849H0V13.8464ZM0 16.9233H37.0504V18.4618H0V16.9233Z" fill="white"/>
<path fill-rule="evenodd" clip-rule="evenodd" d="M0 0H14.82V10.7691H0V0Z" fill="#192F5D"/>
<path fill-rule="evenodd" clip-rule="evenodd" d="M1.235 0.460938L1.36982 0.886562H1.80621L1.45316 1.14965L1.58802 1.57527L1.23496 1.31223L0.881982 1.57527L1.01681 1.14965L0.663788 0.886562H1.10014L1.235 0.460938ZM3.70499 0.460938L3.83985 0.886562H4.27624L3.92318 1.14965L4.05804 1.57527L3.70499 1.31223L3.35201 1.57527L3.48683 1.14965L3.13381 0.886562H3.57016L3.70499 0.460938ZM6.17509 0.460938L6.30991 0.886562H6.7463L6.39325 1.14965L6.52811 1.57527L6.17509 1.31223L5.82207 1.57527L5.9569 1.14965L5.60388 0.886562H6.04027L6.17509 0.460938ZM8.64504 0.460938L8.77986 0.886562H9.21621L8.8632 1.14965L8.99802 1.57527L8.64504 1.31223L8.29198 1.57527L8.42684 1.14965L8.07379 0.886562H8.51018L8.64504 0.460938ZM11.1151 0.460938L11.2499 0.886562H11.6863L11.3333 1.14965L11.4681 1.57527L11.1151 1.31223L10.7621 1.57527L10.8969 1.14965L10.5439 0.886562H10.9802L11.1151 0.460938ZM13.5852 0.460938L13.72 0.886562H14.1564L13.8033 1.14965L13.9382 1.57527L13.5852 1.31223L13.2321 1.57527L13.367 1.14965L13.014 0.886562H13.4503L13.5852 0.460938ZM2.47005 1.53789L2.60488 1.96352H3.04126L2.68821 2.22656L2.82311 2.65223L2.47005 2.38918L2.11703 2.65223L2.25186 2.22656L1.89884 1.96352H2.33523L2.47005 1.53789ZM4.94 1.53789L5.07482 1.96352H5.51118L5.15816 2.22656L5.29298 2.65223L4.94 2.38918L4.58694 2.65223L4.72181 2.22656L4.36875 1.96352H4.80514L4.94 1.53789ZM7.41006 1.53789L7.54489 1.96352H7.98128L7.62822 2.22656L7.76308 2.65223L7.41003 2.38918L7.05705 2.65223L7.19187 2.22656L6.83885 1.96352H7.2752L7.41006 1.53789ZM9.88013 1.53789L10.015 1.96352H10.4513L10.0983 2.22656L10.2331 2.65223L9.88013 2.38918L9.52707 2.65223L9.66201 2.22656L9.30895 1.96352H9.74534L9.88013 1.53789ZM12.3501 1.53789L12.4849 1.96352H12.9213L12.5682 2.22656L12.7031 2.65223L12.3501 2.38918L11.997 2.65223L12.1319 2.22656L11.7788 1.96352H12.2152L12.3501 1.53789ZM1.235 2.6148L1.36982 3.04043H1.80621L1.45316 3.30352L1.58802 3.72914L1.23496 3.46609L0.881982 3.72914L1.01681 3.30352L0.663788 3.04043H1.10014L1.235 2.6148ZM3.70499 2.6148L3.83985 3.04043H4.27624L3.92318 3.30352L4.05804 3.72914L3.70499 3.46609L3.35201 3.72914L3.48683 3.30352L3.13381 3.04043H3.57016L3.70499 2.6148ZM6.17509 2.6148L6.30991 3.04043H6.7463L6.39325 3.30352L6.52811 3.72914L6.17509 3.46609L5.82207 3.72914L5.9569 3.30352L5.60388 3.04043H6.04027L6.17509 2.6148ZM8.64504 2.6148L8.77986 3.04043H9.21621L8.8632 3.30352L8.99802 3.72914L8.64504 3.46609L8.29198 3.72914L8.42684 3.30352L8.07379 3.04043H8.51018L8.64504 2.6148ZM11.1151 2.6148L11.2499 3.04043H11.6863L11.3333 3.30352L11.4681 3.72914L11.1151 3.46609L10.7621 3.72914L10.8969 3.30352L10.5439 3.04043H10.9802L11.1151 2.6148ZM13.5852 2.6148L13.72 3.04043H14.1564L13.8033 3.30352L13.9382 3.72914L13.5852 3.46609L13.2321 3.72914L13.367 3.30352L13.014 3.04043H13.4503L13.5852 2.6148ZM2.47005 3.69172L2.60488 4.11738H3.04126L2.68821 4.38043L2.82311 4.80609L2.47005 4.54305L2.11703 4.80609L2.25186 4.38043L1.89884 4.11738H2.33523L2.47005 3.69172ZM4.94 3.69172L5.07482 4.11738H5.51118L5.15816 4.38043L5.29298 4.80609L4.94 4.54305L4.58694 4.80609L4.72181 4.38043L4.36875 4.11738H4.80514L4.94 3.69172ZM7.41006 3.69172L7.54489 4.11738H7.98128L7.62822 4.38043L7.76308 4.80609L7.41003 4.54305L7.05705 4.80609L7.19187 4.38043L6.83885 4.11738H7.2752L7.41006 3.69172ZM9.88013 3.69172L10.015 4.11738H10.4513L10.0983 4.38043L10.2331 4.80609L9.88013 4.54305L9.52707 4.80609L9.66197 4.38043L9.30892 4.11738H9.7453L9.88013 3.69172ZM12.3501 3.69172L12.4849 4.11738H12.9213L12.5682 4.38043L12.7031 4.80609L12.3501 4.54305L11.997 4.80609L12.1319 4.38043L11.7788 4.11738H12.2152L12.3501 3.69172ZM1.235 4.76867L1.36982 5.1943H1.80621L1.45316 5.45738L1.58802 5.88301L1.23496 5.61996L0.881982 5.88301L1.01681 5.45738L0.663788 5.1943H1.10014L1.235 4.76867ZM3.70499 4.76867L3.83985 5.1943H4.27624L3.92318 5.45738L4.05804 5.88301L3.70499 5.61996L3.35201 5.88301L3.48683 5.45738L3.13381 5.1943H3.57016L3.70499 4.76867ZM6.17509 4.76867L6.30991 5.1943H6.7463L6.39325 5.45738L6.52811 5.88301L6.17509 5.61996L5.82207 5.88301L5.9569 5.45738L5.60388 5.1943H6.04027L6.17509 4.76867ZM8.64504 4.76867L8.77986 5.1943H9.21621L8.8632 5.45738L8.99802 5.88301L8.64504 5.61996L8.29198 5.88301L8.42684 5.45738L8.07379 5.1943H8.51018L8.64504 4.76867ZM11.1151 4.76867L11.2499 5.1943H11.6863L11.3333 5.45738L11.4681 5.88301L11.1151 5.61996L10.7621 5.88301L10.8969 5.45738L10.5439 5.1943H10.9802L11.1151 4.76867ZM13.5852 4.76867L13.72 5.1943H14.1564L13.8033 5.45738L13.9382 5.88301L13.5852 5.61996L13.2321 5.88301L13.367 5.45738L13.014 5.1943H13.4503L13.5852 4.76867ZM2.47005 5.84559L2.60488 6.27125H3.04126L2.68821 6.5343L2.82311 6.95996L2.47005 6.69691L2.11703 6.95996L2.25186 6.5343L1.89884 6.27125H2.33523L2.47005 5.84559ZM4.94 5.84559L5.07482 6.27125H5.51118L5.15816 6.5343L5.29298 6.95996L4.94 6.69691L4.58694 6.95996L4.72181 6.5343L4.36875 6.27125H4.80514L4.94 5.84559ZM7.41006 5.84559L7.54489 6.27125H7.98128L7.62822 6.5343L7.76308 6.95996L7.41003 6.69691L7.05705 6.95996L7.19187 6.5343L6.83885 6.27125H7.2752L7.41006 5.84559ZM9.88013 5.84559L10.015 6.27125H10.4513L10.0983 6.5343L10.2331 6.95996L9.88013 6.69691L9.52707 6.95996L9.66197 6.5343L9.30892 6.27125H9.7453L9.88013 5.84559ZM12.3501 5.84559L12.4849 6.27125H12.9213L12.5682 6.5343L12.7031 6.95996L12.3501 6.69691L11.997 6.95996L12.1319 6.5343L11.7788 6.27125H12.2152L12.3501 5.84559Z" fill="white"/>
<path fill-rule="evenodd" clip-rule="evenodd" d="M1.235 6.92261L1.36982 7.34823H1.80621L1.45316 7.61132L1.58802 8.03694L1.23496 7.7739L0.881982 8.03694L1.01681 7.61132L0.663788 7.34823H1.10014L1.235 6.92261ZM3.70499 6.92261L3.83985 7.34823H4.27624L3.92318 7.61132L4.05804 8.03694L3.70499 7.7739L3.35201 8.03694L3.48683 7.61132L3.13381 7.34823H3.57016L3.70499 6.92261ZM6.17509 6.92261L6.30991 7.34823H6.7463L6.39325 7.61132L6.52811 8.03694L6.17509 7.7739L5.82207 8.03694L5.9569 7.61132L5.60388 7.34823H6.04027L6.17509 6.92261ZM8.64504 6.92261L8.77986 7.34823H9.21621L8.8632 7.61132L8.99802 8.03694L8.64504 7.7739L8.29198 8.03694L8.42684 7.61132L8.07379 7.34823H8.51018L8.64504 6.92261ZM11.1151 6.92261L11.2499 7.34823H11.6863L11.3333 7.61132L11.4681 8.03694L11.1151 7.7739L10.7621 8.03694L10.8969 7.61132L10.5439 7.34823H10.9802L11.1151 6.92261ZM13.5852 6.92261L13.72 7.34823H14.1564L13.8033 7.61132L13.9382 8.03694L13.5852 7.7739L13.2321 8.03694L13.367 7.61132L13.014 7.34823H13.4503L13.5852 6.92261ZM2.47005 7.99952L2.60488 8.42519H3.04126L2.68821 8.68823L2.82311 9.1139L2.47005 8.85085L2.11703 9.1139L2.25186 8.68823L1.89884 8.42519H2.33523L2.47005 7.99952ZM4.94 7.99952L5.07482 8.42519H5.51118L5.15816 8.68823L5.29298 9.1139L4.94 8.85085L4.58694 9.1139L4.72181 8.68823L4.36875 8.42519H4.80514L4.94 7.99952ZM7.41006 7.99952L7.54489 8.42519H7.98128L7.62822 8.68823L7.76308 9.1139L7.41003 8.85085L7.05705 9.1139L7.19187 8.68823L6.83885 8.42519H7.2752L7.41006 7.99952ZM9.88013 7.99952L10.015 8.42519H10.4513L10.0983 8.68823L10.2331 9.1139L9.88013 8.85085L9.52707 9.1139L9.66197 8.68823L9.30892 8.42519H9.7453L9.88013 7.99952ZM12.3501 7.99952L12.4849 8.42519H12.9213L12.5682 8.68823L12.7031 9.1139L12.3501 8.85085L11.997 9.1139L12.1319 8.68823L11.7788 8.42519H12.2152L12.3501 7.99952Z" fill="white"/>
<path fill-rule="evenodd" clip-rule="evenodd" d="M1.235 9.07642L1.36982 9.50204H1.80621L1.45316 9.76513L1.58802 10.1908L1.23496 9.92771L0.881982 10.1908L1.01681 9.76513L0.663788 9.50204H1.10014L1.235 9.07642ZM3.70499 9.07642L3.83985 9.50204H4.27624L3.92318 9.76513L4.05804 10.1908L3.70499 9.92771L3.35201 10.1908L3.48683 9.76513L3.13381 9.50204H3.57016L3.70499 9.07642ZM6.17509 9.07642L6.30991 9.50204H6.7463L6.39325 9.76513L6.52811 10.1908L6.17509 9.92771L5.82207 10.1908L5.9569 9.76513L5.60388 9.50204H6.04027L6.17509 9.07642ZM8.64504 9.07642L8.77986 9.50204H9.21621L8.8632 9.76513L8.99802 10.1908L8.64504 9.92771L8.29198 10.1908L8.42684 9.76513L8.07379 9.50204H8.51018L8.64504 9.07642ZM11.1151 9.07642L11.2499 9.50204H11.6863L11.3333 9.76513L11.4681 10.1908L11.1151 9.92771L10.7621 10.1908L10.8969 9.76513L10.5439 9.50204H10.9802L11.1151 9.07642ZM13.5852 9.07642L13.72 9.50204H14.1564L13.8033 9.76513L13.9382 10.1908L13.5852 9.92771L13.2321 10.1908L13.367 9.76513L13.014 9.50204H13.4503L13.5852 9.07642Z" fill="white"/>
</g>
<defs>
<clipPath id="clip0_5077_59">
<rect width="26" height="20" fill="white"/>
</clipPath>
</defs>
</svg>
