<svg width="16" height="17" viewBox="0 0 16 17" fill="none" xmlns="http://www.w3.org/2000/svg">
<path d="M14.124 3.69762C13.9854 3.70175 13.8539 3.75966 13.7573 3.85908L5.60105 12.0153L2.2448 8.65908C2.19566 8.60789 2.1368 8.56703 2.07166 8.53887C2.00653 8.51072 1.93643 8.49585 1.86547 8.49513C1.79452 8.49441 1.72413 8.50785 1.65844 8.53467C1.59274 8.56149 1.53306 8.60115 1.48289 8.65133C1.43271 8.7015 1.39305 8.76118 1.36623 8.82688C1.33941 8.89257 1.32597 8.96296 1.32669 9.03391C1.32741 9.10487 1.34228 9.17497 1.37043 9.2401C1.39859 9.30524 1.43945 9.3641 1.49064 9.41324L5.22397 13.1466C5.32399 13.2466 5.45963 13.3027 5.60105 13.3027C5.74248 13.3027 5.87811 13.2466 5.97814 13.1466L14.5115 4.61324C14.5885 4.53833 14.6412 4.44188 14.6625 4.33654C14.6838 4.23119 14.6728 4.12187 14.6309 4.02289C14.589 3.92391 14.5182 3.8399 14.4277 3.78185C14.3373 3.72381 14.2314 3.69445 14.124 3.69762Z" fill="#2F1073"/>
</svg>
