<svg width="336" height="57" viewBox="0 0 336 57" fill="none" xmlns="http://www.w3.org/2000/svg">
<path fill-rule="evenodd" clip-rule="evenodd" d="M47.994 36.7155C50.2015 42.3916 50.2064 47.2863 47.4804 50.0828C41.9581 55.7493 27.3253 50.6576 14.797 38.7098C2.26945 26.7621 -3.4101 12.4833 2.11217 6.81682C5.71365 3.12132 13.1887 4.00251 21.4286 8.37475L18.8718 9.89756C14.4393 8.21296 10.7251 8.17235 8.77161 10.1771C4.84791 14.203 9.51766 24.9543 19.2023 34.1903C28.887 43.4263 39.919 47.6491 43.8427 43.6232C45.0189 42.4164 45.4225 40.6037 45.1504 38.4097L47.994 36.7161V36.7155Z" fill="#5551FF"/>
<path d="M12.5123 23.7818L42.9074 5.68088L40.8627 2.32133C39.9427 0.809531 37.9398 0.317302 36.4115 1.22741L9.44318 17.2879C9.70485 18.1808 10.0229 19 10.2964 19.6292C10.906 21.0322 11.6583 22.4236 12.5123 23.7818Z" fill="#5551FF"/>
<path d="M55.6577 26.632L46.8478 12.1556L17.1306 29.8525C18.155 31.0008 19.2135 32.0878 20.2692 33.0943C24.1644 36.8091 29.1571 40.5156 34.2374 42.4605C34.4511 42.5424 34.6863 42.6284 34.9382 42.7145L54.5519 31.0345C56.0802 30.1244 56.5778 28.1431 55.6577 26.6313V26.632Z" fill="white"/>
<path d="M13.7302 39.8052C12.2687 38.4118 10.8198 36.909 9.42721 35.3221C9.24696 36.1235 9.33813 37.0405 9.29707 37.8081C9.0681 42.0667 8.82452 46.3247 8.5879 50.5826C8.503 52.1082 8.08404 54.4798 9.40285 55.6461C10.4196 56.5451 12.1323 56.2884 13.1888 55.6681C17.4486 53.1319 21.7084 50.595 25.9676 48.0581L25.1171 48.5648C20.9513 46.072 17.0582 42.9789 13.7302 39.8059V39.8052Z" fill="white"/>
<path opacity="0.62" d="M26.619 47.6698C26.4019 47.7992 26.1847 47.9287 25.9676 48.0574L26.619 47.6698Z" fill="white"/>
<path d="M10.2888 33.9797C10.0953 34.1215 9.95683 34.2317 9.91577 34.2805C9.66175 34.5821 9.51421 34.9387 9.42792 35.3214C10.8205 36.909 12.2694 38.4111 13.7309 39.8045C17.0589 42.9782 20.952 46.0706 25.1179 48.5635L25.9683 48.0568C26.1854 47.9273 26.4026 47.7979 26.6197 47.6692C22.6974 45.4056 18.6484 42.3813 14.7978 38.7092C13.1769 37.1637 11.6709 35.5789 10.2888 33.979V33.9797Z" fill="white"/>
<path opacity="0.62" d="M10.2888 33.9797C10.0953 34.1215 9.95683 34.2317 9.91577 34.2805C9.66175 34.5821 9.51421 34.9387 9.42792 35.3214C10.8205 36.909 12.2694 38.4111 13.7309 39.8045C17.0589 42.9782 20.952 46.0706 25.1179 48.5635L25.9683 48.0568C26.1854 47.9273 26.4026 47.7979 26.6197 47.6692C22.6974 45.4056 18.6484 42.3813 14.7978 38.7092C13.1769 37.1637 11.6709 35.5789 10.2888 33.979V33.9797Z" fill="white"/>
<path opacity="0.62" d="M2.19011 21.6071L1.43781 22.0545L2.19011 21.6071Z" fill="white"/>
<path fill-rule="evenodd" clip-rule="evenodd" d="M41.5538 26.1266L47.1109 22.8173C48.0281 22.2714 49.23 22.5668 49.7819 23.4734L51.7152 26.6499C52.2671 27.5572 51.9685 28.7461 51.052 29.2921L45.4949 32.6014C44.5777 33.1473 43.3758 32.8519 42.8239 31.9453L40.8906 28.7688C40.3387 27.8615 40.6373 26.6726 41.5538 26.1266Z" fill="#050220"/>
<path d="M68.5909 39.7039V17.296H77.5367C79.2565 17.296 80.7217 17.6206 81.9322 18.2698C83.1427 18.9117 84.0653 19.8052 84.7001 20.9504C85.3422 22.0883 85.6633 23.4013 85.6633 24.8893C85.6633 26.3773 85.3385 27.6903 84.689 28.8282C84.0395 29.9661 83.0984 30.8523 81.8658 31.4869C80.6405 32.1215 79.1569 32.4388 77.415 32.4388H71.7131V28.6422H76.6399C77.5626 28.6422 78.3228 28.4854 78.9207 28.1717C79.5259 27.8508 79.9762 27.4095 80.2714 26.8478C80.5741 26.2789 80.7254 25.626 80.7254 24.8893C80.7254 24.1453 80.5741 23.4961 80.2714 22.9418C79.9762 22.3801 79.5259 21.9461 78.9207 21.6397C78.3155 21.3261 77.5478 21.1693 76.6178 21.1693H73.3849V39.7039H68.5909Z" fill="white"/>
<path d="M92.7172 39.7039H87.5799L95.4076 17.296H101.586L109.402 39.7039H104.265L98.5851 22.4166H98.408L92.7172 39.7039ZM92.3961 30.8961H104.531V34.5943H92.3961V30.8961Z" fill="white"/>
<path d="M111.139 17.296H116.509L121.679 26.9463H121.9L127.071 17.296H132.441L124.17 31.7824V39.7039H119.409V31.7824L111.139 17.296Z" fill="white"/>
<path d="M145.747 39.7039H137.709V17.296H145.814C148.094 17.296 150.058 17.7446 151.704 18.6418C153.35 19.5317 154.615 20.8118 155.501 22.4822C156.394 24.1526 156.841 26.1512 156.841 28.4781C156.841 30.8122 156.394 32.8181 155.501 34.4958C154.615 36.1735 153.342 37.4609 151.681 38.3581C150.028 39.2553 148.05 39.7039 145.747 39.7039ZM142.503 35.6446H145.548C146.965 35.6446 148.157 35.3966 149.124 34.9006C150.098 34.3973 150.829 33.6205 151.316 32.5701C151.811 31.5125 152.058 30.1484 152.058 28.4781C152.058 26.8223 151.811 25.4692 151.316 24.4188C150.829 23.3685 150.102 22.5953 149.135 22.0993C148.168 21.6033 146.976 21.3553 145.559 21.3553H142.503V35.6446Z" fill="white"/>
<path d="M167.836 17.296V39.7039H163.042V17.296H167.836Z" fill="white"/>
<path d="M178.339 39.7039H173.202L181.029 17.296H187.207L195.024 39.7039H189.887L184.207 22.4166H184.03L178.339 39.7039ZM178.018 30.8961H190.152V34.5943H178.018V30.8961Z" fill="white"/>
<path d="M200.403 39.7039V17.296H205.197V35.7978H214.918V39.7039H200.403Z" fill="white"/>
<path d="M242.399 41.2726L236.797 44.6426C233.499 44.6426 231.104 44.0258 229.612 42.7921C228.13 41.5685 227.389 39.6479 227.389 37.0301C227.389 35.2048 227.744 33.5549 228.455 32.0806C229.165 30.6062 230.281 29.2071 231.804 27.8832C231.682 27.141 231.408 26.7699 230.982 26.7699C230.819 26.7699 230.692 26.815 230.601 26.9053C230.479 27.0557 230.363 27.1911 230.251 27.3115L229.52 27.1611C229.52 25.7669 229.835 24.6135 230.464 23.7009C231.175 22.6778 232.169 22.1663 233.448 22.1663C234.585 22.1663 235.523 22.4772 236.264 23.0991C237.005 23.7209 237.376 24.5233 237.376 25.5062C237.376 26.0979 237.223 26.6596 236.919 27.1911C236.584 27.7729 236.127 28.2041 235.549 28.485C236.056 29.0667 236.675 29.4929 237.406 29.7637C237.903 29.9443 238.37 30.0345 238.807 30.0345H240.938V34.1266H238.807C237.355 34.1266 236.193 33.8458 235.32 33.2841C234.346 32.6623 233.468 31.554 232.687 29.9593C231.55 30.7015 230.672 31.554 230.053 32.5168C229.434 33.4696 229.124 34.4425 229.124 35.4354C229.124 37.2107 229.916 38.5245 231.499 39.3771C233.093 40.2396 235.6 40.6709 239.02 40.6709C239.547 40.6709 240.106 40.6659 240.694 40.6558C241.283 40.6458 241.821 40.6308 242.308 40.6107L242.399 41.2726Z" fill="#5551FF"/>
<path d="M250.88 14.2229L249.053 17.5929L245.491 15.7574L247.44 12.3574L250.88 14.2229ZM253.087 34.1266H242.522V30.0345H251.656C251.656 29.162 251.631 28.5401 251.58 28.169C251.499 27.5973 251.332 27.1009 251.078 26.6796C250.753 27.3015 250.317 27.7779 249.769 28.1088C249.221 28.4398 248.637 28.6053 248.018 28.6053C247.206 28.6053 246.521 28.3395 245.963 27.808C245.405 27.2764 245.126 26.6094 245.126 25.8071C245.126 24.6236 245.491 23.2194 246.222 21.5946C247.023 19.8094 247.835 18.9168 248.657 18.9168C249.723 18.9168 250.728 19.8345 251.672 21.6699C252.615 23.5053 253.087 25.446 253.087 27.492V34.1266ZM249.784 24.0017C249.51 23.5304 249.266 23.2044 249.053 23.0239C248.85 22.8333 248.627 22.738 248.383 22.738C248.079 22.738 247.805 22.8734 247.561 23.1442C247.318 23.415 247.196 23.7309 247.196 24.092C247.196 24.3227 247.287 24.5183 247.47 24.6787C247.663 24.8292 247.906 24.9044 248.201 24.9044C248.434 24.9044 248.668 24.8392 248.901 24.7088C249.145 24.5684 249.439 24.3327 249.784 24.0017Z" fill="#5551FF"/>
<path d="M266.424 34.1266H259.528C258.858 34.1266 258.346 33.9862 257.991 33.7053C257.554 33.3643 257.336 32.8077 257.336 32.0354C257.336 31.5941 257.356 31.1177 257.397 30.6062C257.448 30.0947 257.519 29.5782 257.61 29.0566L258.188 29.0266C258.27 29.3776 258.447 29.6333 258.721 29.7938C259.005 29.9543 259.345 30.0345 259.741 30.0345H264.978C264.745 28.5602 264.339 27.3817 263.76 26.4991C263.283 25.7669 262.619 25.1351 261.766 24.6035L262.862 19.9097C264.181 20.8825 265.115 22.1362 265.663 23.6708C266.171 25.0849 266.424 26.9605 266.424 29.2974V34.1266Z" fill="#5551FF"/>
<path d="M300.649 34.1266H287.877C286.649 34.1266 285.832 34.1065 285.426 34.0664C285.03 34.0263 284.599 33.921 284.132 33.7505C283.3 33.4696 282.614 32.898 282.077 32.0354C281.539 31.1729 281.27 30.21 281.27 29.1469C281.27 28.7357 281.29 28.3696 281.331 28.0487C281.371 27.7177 281.452 27.3316 281.574 26.8903C281.747 26.2383 281.94 25.6917 282.153 25.2504C282.366 24.8091 282.741 24.2124 283.279 23.4601L284.132 24.0619C283.695 24.8543 283.396 25.4811 283.234 25.9425C283.081 26.4038 283.005 26.8602 283.005 27.3115C283.005 27.8832 283.188 28.3997 283.553 28.8611C283.929 29.3124 284.416 29.6083 285.015 29.7487C285.37 29.8389 285.832 29.9092 286.4 29.9593C286.979 30.0094 287.582 30.0345 288.212 30.0345H299.218C298.934 29.2723 298.701 28.7307 298.518 28.4097C298.305 28.0286 297.96 27.5422 297.483 26.9504L298.853 23.4601C299.614 24.5333 300.111 25.5162 300.345 26.4088C300.548 27.1911 300.649 28.3445 300.649 29.869V34.1266ZM294.697 37.3009L292.87 40.6709L289.338 38.7753L291.165 35.3452L294.697 37.3009Z" fill="#5551FF"/>
<path d="M310.607 34.1266H302.234V30.0345H308.78L306.938 19.8194L305.963 19.1876C305.963 18.5958 306.055 17.999 306.237 17.3973C306.471 16.635 306.867 15.7274 307.425 14.6743L308.125 15.0353C308.125 15.0955 308.105 15.256 308.064 15.5167C308.064 15.8477 308.277 16.1687 308.704 16.4796C309.079 16.7604 309.678 17.0713 310.5 17.4123C310.409 18.0542 310.272 18.6811 310.089 19.2929C309.916 19.9047 309.719 20.4513 309.495 20.9327L308.947 20.7221L310.607 30.0345V34.1266Z" fill="#5551FF"/>
<path d="M329.576 34.1266H312.191V30.0345H314.216C314.459 30.0345 315.144 29.6183 316.271 28.7858C316.646 28.515 317.189 28.0938 317.9 27.5221C317.9 26.2885 317.854 25.2454 317.763 24.3929C317.671 23.5404 317.524 22.6528 317.321 21.73C317.271 21.5094 316.997 20.4212 316.499 18.4654L315.616 17.9238C315.85 16.8707 316.043 16.1185 316.195 15.6672C316.347 15.2058 316.641 14.4837 317.078 13.5008L317.778 13.7716C317.778 13.8318 317.758 13.9622 317.717 14.1627C317.717 14.5138 318.22 14.93 319.224 15.4114C319.559 15.5719 320.062 15.7775 320.731 16.0282C320.63 16.8105 320.468 17.5427 320.244 18.2247C320.133 18.5657 319.93 19.0973 319.635 19.8194L319.087 19.6389C319.402 21.0631 319.61 22.1162 319.711 22.7982C319.823 23.4702 319.879 24.0719 319.879 24.6035V24.769C319.879 25.0599 319.869 25.2905 319.848 25.461C319.838 25.6215 319.798 25.8773 319.727 26.2283C320.254 25.8472 320.787 25.4661 321.325 25.0849C322.147 24.5132 322.883 24.0519 323.533 23.7009C324.385 23.2395 325.035 23.0088 325.481 23.0088C326.679 23.0088 327.638 23.3147 328.358 23.9265C329.17 24.6186 329.576 25.6165 329.576 26.9203V34.1266ZM327.46 28.5C327.46 28.149 327.085 27.823 326.334 27.5221C325.583 27.2112 324.923 27.0557 324.355 27.0557C323.685 27.0557 322.929 27.2714 322.086 27.7027C321.254 28.1239 320.041 28.9012 318.448 30.0345H322.436C325.786 30.0345 327.46 29.523 327.46 28.5Z" fill="#5551FF"/>
</svg>
