<svg width="35" height="36" viewBox="0 0 35 36" fill="none" xmlns="http://www.w3.org/2000/svg">
<rect y="0.547119" width="35" height="35" rx="17.5" fill="#5551FF"/>
<path d="M15.8332 24.7138C15.8332 23.7805 16.5832 23.0471 17.4998 23.0471C18.4165 23.0471 19.1665 23.7971 19.1665 24.7138C19.1665 25.6305 18.4165 26.3805 17.4998 26.3805C16.5832 26.3805 15.8332 25.6471 15.8332 24.7138Z" fill="white"/>
<path d="M15.8332 11.3803C15.8332 10.447 16.5832 9.71362 17.4998 9.71362C18.4165 9.71362 19.1665 10.4636 19.1665 11.3803C19.1665 12.297 18.4165 13.047 17.4998 13.047C16.5832 13.047 15.8332 12.3136 15.8332 11.3803Z" fill="white"/>
<path d="M15.8332 17.7138C15.8332 16.7805 16.5832 16.0471 17.4998 16.0471C18.4165 16.0471 19.1665 16.7971 19.1665 17.7138C19.1665 18.6305 18.4165 19.3805 17.4998 19.3805C16.5832 19.3805 15.8332 18.6471 15.8332 17.7138Z" fill="white"/>
</svg>
