<svg width="201" height="201" viewBox="0 0 201 201" fill="none" xmlns="http://www.w3.org/2000/svg">
<g clip-path="url(#clip0_4957_6587)">
<path d="M107.951 196.659L107.919 196.661L107.887 196.664C105.424 196.888 102.962 197 100.5 197C47.8506 197 5.01848 154.836 4.11681 102.427L4.11172 102.131L4.06298 101.838C4.00714 101.503 4 101.228 4 100.5C4 47.1758 47.1758 4 100.5 4C153.824 4 197 47.1758 197 100.5C197 151.345 157.769 192.939 107.951 196.659Z" fill="#9466FF" stroke="black" stroke-width="8"/>
<path d="M155.564 153.45L108.366 200.648C105.666 200.883 103.083 201 100.5 201C45.6711 201 1.05666 157.09 0.117409 102.496L44.9667 62.2255L155.564 153.45Z" fill="#7851D1"/>
<path d="M107.802 194.664L107.754 194.668L107.706 194.672C105.303 194.891 102.901 195 100.5 195C48.9403 195 6.99939 153.709 6.11652 102.393L6.10887 101.948L6.03577 101.51C6.01071 101.359 6 101.239 6 100.5C6 48.2804 48.2804 6 100.5 6C152.72 6 195 48.2804 195 100.5C195 150.292 156.582 191.022 107.802 194.664Z" stroke="black" stroke-width="12"/>
<path d="M104.5 93L48 65V101H92L104.5 93Z" fill="#7851D1"/>
<path d="M148.05 113.062H103.318V149.693H148.05V113.062Z" fill="#7851D1"/>
<path d="M105.314 117.406H101.439C100.03 117.406 98.8563 116.232 98.8563 114.824H107.779C107.897 116.232 106.723 117.406 105.314 117.406Z" fill="#2BBCC0"/>
<path d="M105.314 145.467H101.439C100.03 145.467 98.8563 146.641 98.8563 148.05H107.779C107.897 146.641 106.723 145.467 105.314 145.467Z" fill="#2BBCC0"/>
<path d="M105.783 116.115H101.087V146.641H105.783V116.115Z" fill="#2BBCC0"/>
<path d="M120.224 117.406H116.35C114.941 117.406 113.767 116.232 113.767 114.824H122.69C122.69 116.232 121.633 117.406 120.224 117.406Z" fill="#2BBCC0"/>
<path d="M120.224 145.467H116.35C114.941 145.467 113.767 146.641 113.767 148.05H122.69C122.69 146.523 121.633 145.467 120.224 145.467Z" fill="#2BBCC0"/>
<path d="M120.577 116.115H115.88V146.641H120.577V116.115Z" fill="#2BBCC0"/>
<path d="M135.018 117.289H131.143C129.734 117.289 128.56 116.115 128.56 114.706H137.483C137.6 116.115 136.426 117.289 135.018 117.289Z" fill="#2BBCC0"/>
<path d="M135.018 145.349H131.143C129.734 145.349 128.56 146.523 128.56 147.932H137.483C137.6 146.523 136.426 145.349 135.018 145.349Z" fill="#2BBCC0"/>
<path d="M135.487 115.998H130.791V146.523H135.487V115.998Z" fill="#2BBCC0"/>
<path d="M149.928 117.289H146.054C144.645 117.289 143.471 116.115 143.471 114.706H152.394C152.394 116.115 151.22 117.289 149.928 117.289Z" fill="#2BBCC0"/>
<path d="M149.928 145.349H146.054C144.645 145.349 143.471 146.523 143.471 147.932H152.394C152.394 146.406 151.22 145.349 149.928 145.349Z" fill="#2BBCC0"/>
<path d="M150.28 115.998H145.584V146.523H150.28V115.998Z" fill="#2BBCC0"/>
<path d="M152.746 114.824H98.6215C97.9171 114.824 97.4474 114.237 97.4474 113.65C97.4474 112.945 98.0345 112.475 98.6215 112.475H152.746C153.45 112.475 153.92 113.063 153.92 113.65C153.92 114.354 153.45 114.824 152.746 114.824Z" fill="#408989"/>
<path d="M155.211 113.532H96.156C94.0426 113.532 93.3382 110.597 95.2167 109.658L123.159 95.4515C124.686 94.6297 126.564 94.6297 128.091 95.4515L156.033 109.658C158.029 110.597 157.325 113.532 155.211 113.532Z" fill="#2BBCC0"/>
<path d="M153.685 150.163H97.6822C97.2126 150.163 96.8604 149.811 96.8604 149.341V148.754C96.8604 148.284 97.2126 147.932 97.6822 147.932H153.803C154.272 147.932 154.624 148.284 154.624 148.754V149.341C154.507 149.811 154.155 150.163 153.685 150.163Z" fill="#408989"/>
<path d="M154.272 153.803H97.0952C96.156 153.803 95.3341 152.981 95.3341 152.041V151.337C95.3341 150.398 96.156 149.576 97.0952 149.576H154.39C155.329 149.576 156.151 150.398 156.151 151.337V152.041C156.151 152.981 155.329 153.803 154.272 153.803Z" fill="#2BBCC0"/>
<path d="M126.095 108.131C128.234 108.131 129.969 106.397 129.969 104.257C129.969 102.117 128.234 100.383 126.095 100.383C123.955 100.383 122.22 102.117 122.22 104.257C122.22 106.397 123.955 108.131 126.095 108.131Z" fill="white"/>
<path d="M108.343 64.344V95.6916C108.343 98.1571 106.347 100.036 103.999 100.036H50.4614C47.9958 100.036 46.1173 98.0397 46.1173 95.6916V64.344C46.1173 61.8785 48.1132 60 50.4614 60H104.116C106.464 60 108.343 61.8785 108.343 64.344Z" fill="#00A7A4"/>
<path d="M108.343 85.5946H46V91.2301H108.343V85.5946Z" fill="white"/>
<path d="M99.42 70.3318C100.847 70.3318 102.003 69.1754 102.003 67.7488C102.003 66.3223 100.847 65.1659 99.42 65.1659C97.9935 65.1659 96.837 66.3223 96.837 67.7488C96.837 69.1754 97.9935 70.3318 99.42 70.3318Z" fill="#7851D1"/>
<path d="M96.837 70.5665C95.3108 70.5665 94.0193 69.2751 94.0193 67.7488C94.0193 66.2225 95.3108 64.931 96.837 64.931C98.3633 64.931 99.6548 66.2225 99.6548 67.7488C99.6548 69.2751 98.3633 70.5665 96.837 70.5665ZM96.837 65.4007C95.5456 65.4007 94.4889 66.4573 94.4889 67.7488C94.4889 69.0403 95.5456 70.0969 96.837 70.0969C98.1285 70.0969 99.1852 69.0403 99.1852 67.7488C99.1852 66.4573 98.1285 65.4007 96.837 65.4007Z" fill="white"/>
<path d="M61.1454 66.6922H54.101C53.6314 66.6922 53.2792 66.3399 53.2792 65.8703C53.2792 65.4007 53.6314 65.0485 54.101 65.0485H61.1454C61.615 65.0485 61.9673 65.4007 61.9673 65.8703C61.9673 66.3399 61.615 66.6922 61.1454 66.6922Z" fill="white"/>
<path d="M66.4287 70.3317H54.2184C53.7488 70.3317 53.3966 69.9795 53.3966 69.5099C53.3966 69.0403 53.7488 68.688 54.2184 68.688H66.5461C67.0158 68.688 67.368 69.0403 67.368 69.5099C67.2506 69.9795 66.8984 70.3317 66.4287 70.3317Z" fill="white"/>
<path d="M150.985 81.9498C150.398 81.9498 149.811 81.5976 149.693 81.0105C143.588 62.8125 127.034 50.0152 109.423 50.0152C108.601 50.0152 108.014 49.4282 108.014 48.6063C108.014 47.7845 108.601 47.1974 109.423 47.1974C128.325 47.1974 145.936 60.6992 152.394 80.1887C152.628 80.8931 152.159 81.715 151.454 81.9498C151.337 81.9498 151.102 81.9498 150.985 81.9498Z" fill="white"/>
<path d="M150.985 81.9498C150.75 81.9498 150.398 81.8324 150.163 81.715C144.762 77.8405 136.661 72.0876 135.957 71.618C135.252 71.2658 135.018 70.5613 135.252 69.7395C135.605 69.035 136.426 68.6828 137.131 69.035C137.366 69.1525 137.6 69.2699 149.459 77.7231V64.2214C149.459 63.3995 150.046 62.8125 150.867 62.8125C151.689 62.8125 152.276 63.3995 152.276 64.2214V80.5409C152.276 81.1279 151.924 81.5975 151.454 81.8324C151.454 81.9498 151.22 81.9498 150.985 81.9498Z" fill="white"/>
<path d="M47.7153 113C48.3023 113 48.8894 113.47 49.0068 114.057C53.703 132.724 69.3181 146.696 86.9291 147.987C87.7509 147.987 88.338 148.692 88.2206 149.513C88.2206 150.335 87.5161 150.922 86.6943 150.805C67.9092 149.396 51.2375 134.603 46.189 114.761C46.0716 114.057 46.5412 113.235 47.2457 113.117C47.4805 113 47.5979 113 47.7153 113Z" fill="white"/>
<path d="M47.7153 113C47.9501 113 48.3023 113.117 48.5372 113.352C53.5856 117.579 61.3345 124.036 61.9215 124.388C62.6259 124.741 62.8608 125.563 62.5085 126.267C62.1563 126.971 61.2171 127.206 60.5126 126.854C60.3952 126.737 60.043 126.619 48.8894 117.344L47.8327 130.846C47.8327 131.668 47.1283 132.255 46.3064 132.137C45.4846 132.137 44.8976 131.433 45.015 130.611L46.189 114.291C46.189 113.704 46.5412 113.352 47.0109 113.117C47.3631 113 47.4805 113 47.7153 113Z" fill="white"/>
</g>
<defs>
<clipPath id="clip0_4957_6587">
<rect width="201" height="201" fill="white"/>
</clipPath>
</defs>
</svg>
