<svg width="201" height="201" viewBox="0 0 201 201" fill="none" xmlns="http://www.w3.org/2000/svg">
<g clip-path="url(#clip0_4957_6650)">
<path d="M201 100.5C201 153.216 160.495 196.421 108.836 200.648C106.018 200.883 103.318 201 100.5 201C45.4363 201 0.704439 156.738 0 101.674V100.5C0 44.9667 44.9667 0 100.5 0C156.033 0 201 44.9667 201 100.5Z" fill="#9466FF"/>
<path d="M154.859 149.224L108.836 200.648C106.018 200.883 103.318 201 100.5 201C45.4363 201 0.704439 156.738 0 101.674C0 99.7955 0.117407 98.0344 0.234813 96.2733L97.5 21L101.791 60.4644L154.859 149.224Z" fill="#7851D1"/>
<path d="M107.802 194.664L107.754 194.668L107.706 194.672C105.303 194.891 102.901 195 100.5 195C48.9403 195 6.99939 153.709 6.11652 102.393L6.10887 101.948L6.03577 101.51C6.01071 101.359 6 101.239 6 100.5C6 48.2804 48.2804 6 100.5 6C152.72 6 195 48.2804 195 100.5C195 150.292 156.582 191.022 107.802 194.664Z" stroke="black" stroke-width="12"/>
<path d="M155.798 91.1075V145.584C155.798 149.811 152.394 153.098 148.284 153.098H55.0637C50.837 153.098 47.5497 149.693 47.5497 145.584V91.1075C47.5497 86.8808 50.9544 83.5934 55.0637 83.5934H148.167C152.511 83.5934 155.798 86.9982 155.798 91.1075Z" fill="#2BBCC0"/>
<path d="M155.798 96.1559H47.5497V105.901H155.798V96.1559Z" fill="white"/>
<path d="M93.1034 135.135H59.4077C58.7033 135.135 57.9988 134.548 57.9988 133.726V133.374C57.9988 132.669 58.5859 131.965 59.4077 131.965H93.1034C93.8078 131.965 94.5123 132.552 94.5123 133.374V133.726C94.3949 134.548 93.8078 135.135 93.1034 135.135Z" fill="white"/>
<path d="M93.1034 141.357H59.4077C58.7033 141.357 57.9988 140.77 57.9988 139.949V139.596C57.9988 138.892 58.5859 138.188 59.4077 138.188H93.1034C93.8078 138.188 94.5123 138.775 94.5123 139.596V139.949C94.3949 140.77 93.8078 141.357 93.1034 141.357Z" fill="white"/>
<path d="M136.896 98.3867H66.5695V101.909H136.896V98.3867Z" fill="#01A3A8"/>
<path d="M130.321 89.1115C130.321 92.3989 129.734 95.4515 128.678 98.3867C128.325 99.5607 127.856 100.735 127.269 101.909H76.0794C75.4924 100.735 75.0228 99.6781 74.6706 98.3867C73.6139 95.4515 73.0269 92.3989 73.0269 89.1115C73.0269 73.3791 85.8242 60.4644 101.674 60.4644C117.524 60.4644 130.321 73.3791 130.321 89.1115Z" fill="#FBAE38"/>
<path d="M127.151 89.1116C127.151 92.3989 126.564 95.4515 125.39 98.3867C124.921 99.5607 124.334 100.735 123.746 101.909H79.719C79.132 100.735 78.545 99.6781 78.0753 98.3867C76.9013 95.5689 76.3142 92.3989 76.3142 89.1116C76.3142 75.1402 87.7027 63.6343 101.791 63.6343C115.763 63.6343 127.151 75.1402 127.151 89.1116Z" fill="#FFCD52"/>
<path d="M116.467 89.2289C116.467 92.6337 115.293 95.9211 113.297 98.3866C112.123 99.7955 110.949 100.97 109.423 101.909H93.573C92.1641 100.97 90.7552 99.7955 89.6986 98.3866C87.7027 95.9211 86.5286 92.6337 86.5286 89.2289C86.5286 81.0105 93.2208 74.3183 101.557 74.3183C109.775 74.2009 116.467 80.8931 116.467 89.2289Z" fill="#FBAE38"/>
<path d="M102.848 87.4679V82.0672C104.022 82.1846 105.196 82.6542 106.136 83.3586C106.37 83.476 106.488 83.5935 106.723 83.5935C107.427 83.5935 108.014 83.0064 108.014 82.302C108.014 81.9498 107.897 81.715 107.662 81.4801C106.253 80.3061 104.609 79.6016 102.848 79.4842V77.7231C102.848 77.2535 102.379 76.7839 101.909 76.7839C101.322 76.7839 100.97 77.2535 100.97 77.7231V79.4842C97.4474 79.719 95.0993 81.8324 95.0993 84.7675C95.0993 88.2897 98.0345 89.229 100.97 90.0508V96.2734C99.4433 95.9211 98.0345 95.3341 96.8604 94.3949C96.6256 94.16 96.2734 94.0426 96.0385 94.0426C95.3341 94.0426 94.7471 94.7471 94.7471 95.4515C94.7471 95.8037 94.8645 96.0385 95.0993 96.2734C96.743 97.6822 98.7389 98.5041 100.97 98.6215V100.383C100.97 100.97 101.439 101.322 102.026 101.322C102.496 101.322 102.966 100.852 102.966 100.383V98.6215C107.192 98.3867 108.953 95.8037 108.953 93.1034C108.836 89.3464 105.783 88.2897 102.848 87.4679ZM100.97 86.9982C99.2085 86.5286 97.9171 85.9416 97.9171 84.5327C97.9171 83.1238 99.0911 82.0672 100.97 81.9498V86.9982ZM102.848 96.1559V90.5204C104.609 90.9901 106.018 91.6945 105.901 93.3382C106.018 94.5123 105.196 95.9211 102.848 96.1559Z" fill="white"/>
<path d="M141.005 142.532C143.793 142.532 146.054 140.271 146.054 137.483C146.054 134.695 143.793 132.435 141.005 132.435C138.217 132.435 135.957 134.695 135.957 137.483C135.957 140.271 138.217 142.532 141.005 142.532Z" fill="#FFCD52"/>
<path d="M135.37 142.884C132.435 142.884 129.969 140.418 129.969 137.483C129.969 134.548 132.435 132.082 135.37 132.082C138.305 132.082 140.77 134.548 140.77 137.483C140.77 140.418 138.422 142.884 135.37 142.884ZM135.37 133.491C133.139 133.491 131.261 135.37 131.261 137.6C131.261 139.831 133.139 141.71 135.37 141.71C137.6 141.71 139.479 139.831 139.479 137.6C139.479 135.252 137.6 133.491 135.37 133.491Z" fill="white"/>
<path d="M97.1605 21V43.3415H94L102 57L110 43.3415H106.84V21H97.1605Z" fill="white"/>
</g>
<defs>
<clipPath id="clip0_4957_6650">
<rect width="201" height="201" fill="white"/>
</clipPath>
</defs>
</svg>
