<svg width="144" height="143" viewBox="0 0 144 143" fill="none" xmlns="http://www.w3.org/2000/svg">
<g clip-path="url(#clip0_4957_6720)">
<path d="M143.333 71.3333C143.333 108.167 115.417 138.5 79.5833 142.25C77.0833 142.583 74.5 142.667 72 142.667C35.25 142.667 4.99999 114.917 1.08332 79.1667C0.74999 76.6667 0.666656 74 0.666656 71.3333C0.666656 31.9167 32.5833 0 72 0C111.417 0 143.333 31.9167 143.333 71.3333Z" fill="#5551FF"/>
<path d="M111.75 107.333L79.6666 142.25C77.1666 142.583 74.5833 142.667 72.0833 142.667C35.3333 142.667 5.08332 114.917 1.16666 79.1667L34.25 41.9167L111.75 107.333Z" fill="#3E3AC0"/>
<path d="M103 49V82.25C103 87.5 98.75 91.75 93.5 91.75H40.4167C35.1667 91.75 30.9167 87.5 30.9167 82.25V49C30.9167 43.75 35.1667 39.5 40.4167 39.5H93.4167C98.75 39.5 103 43.75 103 49Z" fill="white"/>
<path d="M103 49H31C31 43.75 35.25 39.5 40.5 39.5H93.5C98.75 39.5 103 43.75 103 49Z" fill="#00A7A4"/>
<path d="M66.8333 83.4166C59.5833 83.4166 53.1667 78.25 51.6667 71.1666C51.5 70.3333 52 69.5833 52.75 69.4166C53.5 69.25 54.3333 69.75 54.5 70.5C55.75 76.25 60.9167 80.4166 66.8333 80.4166C73.75 80.4166 79.4167 74.75 79.4167 67.8333C79.4167 60.9166 73.75 55.25 66.8333 55.25C63 55.25 59.4167 56.9166 57.0833 59.9166C56.5 60.5833 55.5833 60.6666 55 60.1666C54.3333 59.6666 54.25 58.75 54.75 58.0833C57.75 54.4166 62.0833 52.3333 66.8333 52.3333C75.4167 52.3333 82.3333 59.25 82.3333 67.8333C82.3333 76.4166 75.3333 83.4166 66.8333 83.4166Z" fill="#9466FF"/>
<path d="M54.5833 62.3333C54.25 62.3333 54 62.25 53.75 62.0833C53.3333 61.8333 53.1667 61.5 53.0833 61.0833C52.5833 56.5 52.5833 56.4166 52.5833 56.3333C52.5833 55.5 53.25 54.9166 54 54.9166C54.75 54.9166 55.4167 55.5 55.4167 56.3333C55.4167 56.5833 55.5833 58.0833 55.75 59.25L58.5833 58.6666C59.3333 58.5 60.1667 59 60.3333 59.8333C60.5 60.5833 60 61.4166 59.1667 61.5833L54.8333 62.3333C54.75 62.3333 54.6667 62.3333 54.5833 62.3333Z" fill="#9466FF"/>
<path d="M113 83.1666V105.417C113 107.167 111.583 108.5 109.917 108.5H71.9166C70.1666 108.5 68.8333 107.083 68.8333 105.417V83.1666C68.8333 81.4166 70.25 80.0833 71.9166 80.0833H110C111.667 80.0833 113 81.4166 113 83.1666Z" fill="#00A7A4"/>
<path d="M113 98.25H68.75V102.25H113V98.25Z" fill="white"/>
<path d="M106.667 87.4167C107.679 87.4167 108.5 86.5959 108.5 85.5833C108.5 84.5708 107.679 83.75 106.667 83.75C105.654 83.75 104.833 84.5708 104.833 85.5833C104.833 86.5959 105.654 87.4167 106.667 87.4167Z" fill="#9466FF"/>
<path d="M104.833 87.5833C103.75 87.5833 102.833 86.6667 102.833 85.5833C102.833 84.5 103.75 83.5833 104.833 83.5833C105.917 83.5833 106.833 84.5 106.833 85.5833C106.833 86.6667 105.917 87.5833 104.833 87.5833ZM104.833 83.9166C103.917 83.9166 103.167 84.6667 103.167 85.5833C103.167 86.5 103.917 87.25 104.833 87.25C105.75 87.25 106.5 86.5 106.5 85.5833C106.5 84.6667 105.75 83.9166 104.833 83.9166Z" fill="white"/>
<path d="M79.5 84.8334H74.5C74.1667 84.8334 73.9167 84.5834 73.9167 84.25C73.9167 83.9167 74.1667 83.6667 74.5 83.6667H79.5C79.8333 83.6667 80.0833 83.9167 80.0833 84.25C80.0833 84.5834 79.8333 84.8334 79.5 84.8334Z" fill="white"/>
<path d="M83.25 87.4167H74.5833C74.25 87.4167 74 87.1667 74 86.8333C74 86.5 74.25 86.25 74.5833 86.25H83.3333C83.6667 86.25 83.9167 86.5 83.9167 86.8333C83.8333 87.1667 83.5833 87.4167 83.25 87.4167Z" fill="white"/>
<path d="M45.0833 45H42C41.3333 45 40.75 44.4167 40.75 43.75V35.5C40.75 34.8333 41.3333 34.25 42 34.25H45.0833C45.75 34.25 46.3333 34.8333 46.3333 35.5V43.75C46.4167 44.4167 45.8333 45 45.0833 45Z" fill="white"/>
<path d="M91.75 45H88.6667C88 45 87.4167 44.4167 87.4167 43.75V35.5C87.4167 34.8333 88 34.25 88.6667 34.25H91.75C92.4167 34.25 93 34.8333 93 35.5V43.75C93.0833 44.4167 92.5 45 91.75 45Z" fill="white"/>
</g>
<defs>
<clipPath id="clip0_4957_6720">
<rect width="142.667" height="142.667" fill="white" transform="translate(0.666656)"/>
</clipPath>
</defs>
</svg>
