<svg width="144" height="143" viewBox="0 0 144 143" fill="none" xmlns="http://www.w3.org/2000/svg">
<g clip-path="url(#clip0_4957_6746)">
<path d="M143.333 71.3333C143.333 108.583 114.75 139.25 78.3333 142.333C77.8333 142.417 77.25 142.417 76.6667 142.417C75.0833 142.5 73.5833 142.583 72 142.583C35.5833 142.583 5.5 115.333 1.16666 80C0.916664 77.8333 0.749997 75.5833 0.666664 73.3333C0.666664 72.6667 0.666664 72.0833 0.666664 71.3333C0.666664 31.9167 32.5833 0 72 0C111.417 0 143.333 31.9167 143.333 71.3333Z" fill="#5551FF"/>
<path d="M108 111.083L76.6667 142.5C75.0833 142.583 73.5833 142.667 72 142.667C35.5833 142.667 5.5 115.417 1.16666 80.0833L33.5 47.75L108 111.083Z" fill="#3E3AC0"/>
<path d="M107.25 51.3334V88.5C107.25 91.3334 104.917 93.6667 102 93.6667H37.6667C34.75 93.6667 32.4167 91.3334 32.4167 88.5V51.3334C32.4167 48.5 34.75 46.1667 37.6667 46.1667H102C104.917 46.1667 107.25 48.5 107.25 51.3334Z" fill="#4FA3A5"/>
<path d="M107.25 76.5H32.5V83.0833H107.25V76.5Z" fill="white"/>
<path d="M96.5 58.4167C98.2489 58.4167 99.6667 57.0362 99.6667 55.3333C99.6667 53.6305 98.2489 52.25 96.5 52.25C94.7511 52.25 93.3333 53.6305 93.3333 55.3333C93.3333 57.0362 94.7511 58.4167 96.5 58.4167Z" fill="white"/>
<path d="M93.4167 58.75C91.5 58.75 90 57.25 90 55.3334C90 53.5 91.5 51.9167 93.4167 51.9167C95.3333 51.9167 96.8333 53.4167 96.8333 55.3334C96.8333 57.1667 95.25 58.75 93.4167 58.75ZM93.4167 52.5C91.8333 52.5 90.5833 53.75 90.5833 55.3334C90.5833 56.8334 91.8333 58.1667 93.4167 58.1667C95 58.1667 96.25 56.9167 96.25 55.3334C96.25 53.75 94.9167 52.5 93.4167 52.5Z" fill="white"/>
<path d="M50.6667 54.0833H42.1667C41.6667 54.0833 41.25 53.6667 41.25 53.1667C41.25 52.6667 41.6667 52.25 42.1667 52.25H50.6667C51.1667 52.25 51.5833 52.6667 51.5833 53.1667C51.5833 53.6667 51.1667 54.0833 50.6667 54.0833Z" fill="white"/>
<path d="M57 58.4167H42.1667C41.6667 58.4167 41.25 58 41.25 57.5C41.25 57 41.6667 56.5834 42.1667 56.5834H57C57.5 56.5834 57.9167 57 57.9167 57.5C57.9167 58 57.5 58.4167 57 58.4167Z" fill="white"/>
<path d="M110.75 108.833L101.25 114.417L91.75 108.833C85.6667 105.25 82 99.25 82 92.8334V75.1667L101.25 69.5834L120.5 75.1667V92.8334C120.5 99.25 116.917 105.25 110.75 108.833Z" fill="white"/>
<path d="M109.333 106.333L101.25 111.083L93.1667 106.333C88 103.25 84.9167 98.1667 84.9167 92.7501V77.7501L101.333 73.0001L117.75 77.7501V92.7501C117.667 98.1667 114.583 103.25 109.333 106.333Z" fill="#9466FF"/>
<path d="M106.5 96.5833H96.9167C96.4167 96.5833 96.0833 96.1667 96.0833 95.75V89.0833C96.0833 88.5833 96.5 88.25 96.9167 88.25H106.5C107 88.25 107.333 88.6667 107.333 89.0833V95.75C107.333 96.25 107 96.5833 106.5 96.5833Z" fill="white"/>
<path d="M101.583 92C101.083 92 100.75 92.3333 100.75 92.8333C100.75 93.3333 101.083 93.6667 101.583 93.6667C102.083 93.6667 102.417 93.3333 102.417 92.8333C102.417 92.3333 102.083 92 101.583 92Z" fill="#F39325"/>
<path d="M101.583 95.4167C101.333 95.4167 101.167 95.25 101.167 95V93.4167C101.167 93.1667 101.333 93 101.583 93C101.833 93 102 93.1667 102 93.4167V95C102 95.25 101.833 95.4167 101.583 95.4167Z" fill="#F39325"/>
<path d="M105.5 86.9167V88.25H104.167V86.9167C104.167 85.0834 103.083 83.6667 101.75 83.6667C100.417 83.6667 99.3333 85.0834 99.3333 86.8334V88.3334H98V86.8334C98.0833 84.25 99.75 82.1667 101.75 82.1667C103.833 82.1667 105.5 84.25 105.5 86.8334V86.9167Z" fill="white"/>
</g>
<defs>
<clipPath id="clip0_4957_6746">
<rect width="142.667" height="142.667" fill="white" transform="translate(0.666664)"/>
</clipPath>
</defs>
</svg>
