<svg width="144" height="143" viewBox="0 0 144 143" fill="none" xmlns="http://www.w3.org/2000/svg">
<g clip-path="url(#clip0_4957_6691)">
<path d="M143.333 71.3333C143.333 108.583 114.75 139.25 78.3334 142.333C77.8334 142.417 77.25 142.417 76.6667 142.417C75.0834 142.5 73.5834 142.583 72 142.583C35.5834 142.583 5.50002 115.333 1.16669 80C0.916687 77.8333 0.75002 75.5833 0.666687 73.3333C0.666687 72.6667 0.666687 72.0833 0.666687 71.3333C0.666687 31.9167 32.5834 0 72 0C111.417 0 143.333 31.9167 143.333 71.3333Z" fill="#5551FF"/>
<path d="M108 111.083L76.6667 142.5C75.0833 142.583 73.5834 142.667 72 142.667C35.5834 142.667 5.50002 115.417 1.16669 80.0833L33.5 47.75L108 111.083Z" fill="#3E3AC0"/>
<g clip-path="url(#clip1_4957_6691)">
<path d="M114.092 104.008V51.9768C114.092 49.3033 112.038 47.2468 109.572 47.2468H33.5556C31.0902 47.2468 29.0356 49.3033 29.0356 51.9768V104.008H114.092Z" fill="#656565"/>
<path d="M109.778 99.8946V51.9768C109.778 51.5655 109.572 51.3599 109.367 51.3599H33.3501C33.1447 51.3599 32.9392 51.5655 32.9392 51.9768V99.8946H109.778Z" fill="#F4F4F4"/>
<path d="M76.2893 102.568H120.461V104.213C120.461 106.887 118.407 111 115.941 111H27.1866C24.7212 111 22.6667 106.887 22.6667 104.213V102.568H66.8386" fill="#D0D0D0"/>
<path d="M67.6604 100.1C67.6604 94.5475 67.8659 91.2571 67.8659 85.7044C67.8659 84.0591 66.6331 82.0026 64.9895 81.1799C58.6206 78.7121 51.4298 78.7121 45.0608 81.1799C43.4172 81.7969 42.1845 84.0591 42.1845 85.7044C42.1845 91.2571 42.39 94.5475 42.39 100.1" fill="#9466FF"/>
<path d="M47.3208 68.2236C47.3208 72.3367 50.608 75.8329 54.9225 75.8329C59.0315 75.8329 62.5242 72.5424 62.5242 68.2236C62.5242 64.1105 59.2369 60.6144 54.9225 60.6144C50.608 60.6144 47.3208 64.1105 47.3208 68.2236Z" fill="#9466FF"/>
<path d="M110.09 33H118.308V72.0746H89.545L77.218 84.4139V72.0746H68.9999V33H83.3815H110.09Z" fill="#9B9B9B"/>
<path d="M112.449 31H120.667V70.0746H91.9036L79.5766 82.4139V70.0746H71.3585V31H85.7401H112.449Z" fill="white"/>
<path d="M100.408 48.0489V45.3641L98.0851 45.1576C97.9302 44.2799 97.6204 43.4538 97.1558 42.731L98.7047 40.8723L96.846 38.962L95.0389 40.5109C94.3161 40.0462 93.5416 39.6848 92.7155 39.4783L92.509 37H89.8759L89.6693 39.375C88.7916 39.5299 88.0172 39.8397 87.2943 40.3043L85.4873 38.7038L83.577 40.6141L85.0742 42.4212C84.6096 43.144 84.2481 43.9185 84.0416 44.7962L81.6666 45.0027V47.6875L83.99 47.894C84.1449 48.7717 84.4547 49.5978 84.9193 50.3207L83.3704 52.1793L85.2291 54.0897L87.0362 52.5408C87.759 53.0054 88.5335 53.3668 89.3596 53.5734L89.5661 56H92.1992L92.4058 53.625C93.2835 53.4701 94.0579 53.1603 94.7808 52.6957L96.6395 54.2962L98.4981 52.3859L97.0009 50.5788C97.4655 49.856 97.827 49.0815 98.0335 48.2038L100.408 48.0489Z" fill="#9466FF"/>
<circle cx="91.1666" cy="46.5" r="2.5" fill="white"/>
<path d="M110.517 56.3967V54.8424L109.172 54.7228C109.082 54.2147 108.903 53.7364 108.634 53.3179L109.531 52.2418L108.455 51.1359L107.408 52.0326C106.99 51.7636 106.542 51.5543 106.063 51.4348L105.944 50H104.419L104.3 51.375C103.792 51.4647 103.343 51.644 102.925 51.913L101.879 50.9864L100.773 52.0924L101.639 53.1386C101.37 53.5571 101.161 54.0054 101.042 54.5136L99.6666 54.6332V56.1875L101.012 56.3071C101.101 56.8152 101.281 57.2935 101.55 57.712L100.653 58.788L101.729 59.894L102.775 58.9973C103.194 59.2663 103.642 59.4755 104.12 59.5951L104.24 61H105.764L105.884 59.625C106.392 59.5353 106.841 59.356 107.259 59.087L108.335 60.0136L109.411 58.9076L108.544 57.8614C108.813 57.4429 109.023 56.9946 109.142 56.4864L110.517 56.3967Z" fill="#9466FF"/>
<circle cx="105.167" cy="55.5" r="1.5" fill="white"/>
</g>
</g>
<defs>
<clipPath id="clip0_4957_6691">
<rect width="142.667" height="142.667" fill="white" transform="translate(0.666687)"/>
</clipPath>
<clipPath id="clip1_4957_6691">
<rect width="98" height="80" fill="white" transform="translate(22.6667 31)"/>
</clipPath>
</defs>
</svg>
