<svg width="144" height="143" viewBox="0 0 144 143" fill="none" xmlns="http://www.w3.org/2000/svg">
<g clip-path="url(#clip0_4957_6774)">
<path d="M143.333 71.3333C143.333 108.333 115.167 138.75 79.1667 142.25C78.8333 142.333 78.6666 142.333 78.3333 142.333C77.8333 142.417 77.25 142.417 76.6666 142.417C75.0833 142.5 73.5833 142.583 72 142.583C35.5833 142.583 5.49999 115.333 1.16666 80C0.916656 77.8333 0.74999 75.5833 0.666656 73.3333C0.666656 72.6667 0.666656 72.0833 0.666656 71.3333C0.666656 66.6667 1.16666 62.0833 1.99999 57.5833C8.41666 24.75 37.25 0 72 0C111.417 0 143.333 31.9167 143.333 71.3333Z" fill="#5551FF"/>
<path d="M107.667 118.25L79.1667 142.25C78.8333 142.333 78.6666 142.333 78.3333 142.333C77.8333 142.417 77.25 142.417 76.6666 142.417C75.0833 142.5 73.5833 142.583 72 142.583C35.5833 142.583 5.49999 115.333 1.16666 80C0.916656 77.8333 0.74999 75.5833 0.666656 73.3333C0.666656 72.6666 0.666656 72.0833 0.666656 71.3333C0.666656 66.6666 1.16666 62.0833 1.99999 57.5833L34.5 25.0833L107.667 118.25Z" fill="#3E3AC0"/>
<path d="M109.5 37.3333V113.917C109.5 117.333 106.75 120.083 103.333 120.083H42.5833C39.1667 120.083 36.4167 117.333 36.4167 113.917V28.75C36.4167 25.3333 39.1667 22.5833 42.5833 22.5833H94.75C95.1667 22.5833 95.6667 22.5833 96.0833 22.75C97.25 23 98.25 23.5 99.0833 24.3333L107.667 32.9166C108.583 33.8333 109.25 35.1666 109.333 36.5C109.5 36.8333 109.5 37.0833 109.5 37.3333Z" fill="#656565"/>
<path d="M107.5 37.3333V113.917C107.5 117.333 104.75 120.083 101.333 120.083H40.6667C37.25 120.083 34.5 117.333 34.5 113.917V28.75C34.5 25.3333 37.25 22.5833 40.6667 22.5833H92.8333C93.25 22.5833 93.75 22.5833 94.1667 22.75C95.3333 23 96.3333 23.5 97.1667 24.3333L105.75 32.9166C106.667 33.8333 107.333 35.1666 107.417 36.5C107.5 36.8333 107.5 37.0833 107.5 37.3333Z" fill="white"/>
<path d="M100.667 102.741C100.667 104.533 99.1798 106 97.3624 106H65.9711C64.1537 106 62.6667 104.533 62.6667 102.741V65.2593C62.6667 63.4667 64.1537 62 65.9711 62H97.3624C99.1798 62 100.667 63.4667 100.667 65.2593V102.741Z" fill="#9466FF"/>
<path d="M69.6667 79V68H95.6667" stroke="#7851D1" stroke-width="2"/>
<path d="M41.6667 56V45H48.6667V56" fill="#7EB3FF"/>
<path d="M52.6667 56V37H59.6667V56" fill="#9466FF"/>
<path d="M64.6667 56V42H71.6667V56" fill="#FD2227"/>
<path d="M41.6667 64H58.6667" stroke="#7EB3FF" stroke-width="2"/>
<path d="M41.6667 70H58.6667" stroke="#7EB3FF" stroke-width="2"/>
<path d="M41.6667 77H52.6667" stroke="#7EB3FF" stroke-width="2"/>
<path d="M95.6667 70H70.6667V80H95.6667V70Z" fill="#7EB3FF"/>
<path d="M74.6667 83H67.6667V90H74.6667V83Z" fill="#7EB3FF"/>
<path d="M85.6667 83H78.6667V90H85.6667V83Z" fill="#7EB3FF"/>
<path d="M95.6667 83H89.6667V90H95.6667V83Z" fill="#7EB3FF"/>
<path d="M74.6667 93H67.6667V100H74.6667V93Z" fill="#7EB3FF"/>
<path d="M85.6667 93H78.6667V100H85.6667V93Z" fill="#7EB3FF"/>
<path d="M95.6667 83H89.6667V100H95.6667V83Z" fill="#B2D2EA"/>
<path d="M47.6549 81.2458V84.5245" stroke="#7EB3FF" stroke-width="2"/>
<path d="M47.6549 100.918V104.197" stroke="#7EB3FF" stroke-width="2"/>
<path d="M48.4745 92.7213H46.8352C44.5401 92.7213 42.7368 90.918 42.7368 88.6229C42.7368 86.3278 44.5401 84.5245 46.8352 84.5245H48.4745C50.7696 84.5245 52.5729 86.3278 52.5729 88.6229" stroke="#7EB3FF" stroke-width="2"/>
<path d="M46.8352 92.7213H48.4745C50.7696 92.7213 52.5729 94.5246 52.5729 96.8197C52.5729 99.1148 50.7696 100.918 48.4745 100.918H46.8352C44.5401 100.918 42.7368 99.1148 42.7368 96.8197" stroke="#7EB3FF" stroke-width="2"/>
<path d="M107.417 36.5833H99.8333C96.6667 36.5833 94.1667 34.0833 94.1667 30.9166V22.8333C95.3333 23.0833 96.3333 23.5833 97.1667 24.4166L105.75 33C106.75 33.9166 107.333 35.25 107.417 36.5833Z" fill="#9B9B9B"/>
</g>
<defs>
<clipPath id="clip0_4957_6774">
<rect width="142.667" height="142.667" fill="white" transform="translate(0.666656)"/>
</clipPath>
</defs>
</svg>
