<svg width="27" height="27" viewBox="0 0 27 27" fill="none" xmlns="http://www.w3.org/2000/svg">
<g id="mail-03">
<path id="Icon" d="M2.25 7.875L8.09307 11.7704C8.43017 11.9951 8.59872 12.1075 8.78107 12.1871C8.94292 12.2577 9.11253 12.3091 9.2864 12.3401C9.48228 12.375 9.68485 12.375 10.09 12.375H16.91C17.3152 12.375 17.5177 12.375 17.7136 12.3401C17.8875 12.3091 18.0571 12.2577 18.2189 12.1871C18.4013 12.1075 18.5698 11.9951 18.9069 11.7704L24.75 7.875M7.65 22.5H19.35C21.2402 22.5 22.1853 22.5 22.9072 22.1321C23.5423 21.8086 24.0586 21.2923 24.3821 20.6572C24.75 19.9353 24.75 18.9902 24.75 17.1V9.9C24.75 8.00982 24.75 7.06473 24.3821 6.34278C24.0586 5.70774 23.5423 5.19143 22.9072 4.86785C22.1853 4.5 21.2402 4.5 19.35 4.5H7.65C5.75982 4.5 4.81473 4.5 4.09278 4.86785C3.45774 5.19143 2.94143 5.70774 2.61785 6.34278C2.25 7.06473 2.25 8.00982 2.25 9.9V17.1C2.25 18.9902 2.25 19.9353 2.61785 20.6572C2.94143 21.2923 3.45774 21.8086 4.09278 22.1321C4.81473 22.5 5.75982 22.5 7.65 22.5Z" stroke="white" stroke-width="2" stroke-linecap="round" stroke-linejoin="round"/>
</g>
</svg>
