<svg width="215" height="38" viewBox="0 0 215 38" fill="none" xmlns="http://www.w3.org/2000/svg">
<path fill-rule="evenodd" clip-rule="evenodd" d="M30.7874 24.3328C32.2035 28.0173 32.2066 31.1946 30.458 33.0098C26.9155 36.6881 17.5288 33.383 9.49208 25.6274C1.45582 17.8718 -2.18753 8.60316 1.35492 4.92491C3.66522 2.52607 8.46037 3.09808 13.7462 5.9362L12.106 6.92469C9.26261 5.83118 6.87999 5.80481 5.62685 7.10612C3.10986 9.71946 6.10543 16.6983 12.318 22.6937C18.5306 28.689 25.6075 31.4301 28.1245 28.8168C28.8789 28.0334 29.1379 26.8568 28.9633 25.4326L30.7874 24.3332V24.3328Z" fill="#5551FF"/>
<path d="M8.02645 15.9373L27.5245 4.18752L26.2128 2.00675C25.6227 1.02541 24.3378 0.705893 23.3574 1.29666L6.05768 11.7219C6.22554 12.3015 6.42956 12.8333 6.60501 13.2417C6.99608 14.1524 7.47868 15.0556 8.02645 15.9373Z" fill="#5551FF"/>
<path d="M35.7036 17.7873L30.0522 8.39038L10.989 19.8778C11.6462 20.6232 12.3252 21.3288 13.0024 21.9822C15.5011 24.3935 18.7038 26.7995 21.9628 28.0619C22.0999 28.1151 22.2508 28.171 22.4124 28.2268L34.9942 20.6451C35.9746 20.0543 36.2938 18.7682 35.7036 17.7869V17.7873Z" fill="#050220"/>
<path d="M8.80774 26.3383C7.87023 25.4338 6.94075 24.4583 6.04744 23.4282C5.93181 23.9484 5.99029 24.5436 5.96395 25.0419C5.81708 27.8063 5.66083 30.5702 5.50904 33.3342C5.45457 34.3244 5.18582 35.8639 6.03181 36.6209C6.68405 37.2046 7.78273 37.0379 8.46041 36.6352C11.193 34.9889 13.9257 33.3422 16.6578 31.6955L16.1123 32.0244C13.4399 30.4062 10.9426 28.3984 8.80774 26.3387V26.3383Z" fill="#050220"/>
<path opacity="0.62" d="M17.0757 31.4434C16.9364 31.5274 16.7971 31.6114 16.6578 31.695L17.0757 31.4434Z" fill="#050220"/>
<path d="M6.60015 22.5568C6.47604 22.6489 6.3872 22.7204 6.36086 22.7521C6.19791 22.9479 6.10327 23.1793 6.04791 23.4278C6.94123 24.4583 7.8707 25.4334 8.80821 26.3379C10.9431 28.398 13.4404 30.4053 16.1128 32.0235L16.6583 31.6946C16.7976 31.6106 16.9369 31.5266 17.0762 31.443C14.5601 29.9737 11.9627 28.0105 9.4926 25.6269C8.45285 24.6237 7.48677 23.5949 6.60015 22.5564V22.5568Z" fill="#050220"/>
<path opacity="0.62" d="M6.60015 22.5568C6.47604 22.6489 6.3872 22.7204 6.36086 22.7521C6.19791 22.9479 6.10327 23.1793 6.04791 23.4278C6.94123 24.4583 7.8707 25.4334 8.80821 26.3379C10.9431 28.398 13.4404 30.4053 16.1128 32.0235L16.6583 31.6946C16.7976 31.6106 16.9369 31.5266 17.0762 31.443C14.5601 29.9737 11.9627 28.0105 9.4926 25.6269C8.45285 24.6237 7.48677 23.5949 6.60015 22.5564V22.5568Z" fill="#050220"/>
<path opacity="0.62" d="M1.40496 14.5256L0.922363 14.8161L1.40496 14.5256Z" fill="#050220"/>
<path fill-rule="evenodd" clip-rule="evenodd" d="M26.6561 17.4594L30.2209 15.3112C30.8093 14.9569 31.5803 15.1486 31.9343 15.7371L33.1745 17.799C33.5285 18.388 33.337 19.1598 32.7491 19.5141L29.1843 21.6623C28.5959 22.0166 27.8249 21.8249 27.4709 21.2364L26.2307 19.1745C25.8767 18.5855 26.0682 17.8138 26.6561 17.4594Z" fill="white"/>
<path d="M44 26.2727V11.7273H49.7386C50.8419 11.7273 51.7817 11.938 52.5582 12.3594C53.3348 12.7761 53.9266 13.3561 54.3338 14.0995C54.7457 14.8381 54.9517 15.6904 54.9517 16.6563C54.9517 17.6222 54.7434 18.4745 54.3267 19.2131C53.91 19.9517 53.3063 20.527 52.5156 20.9389C51.7296 21.3509 50.7779 21.5568 49.6605 21.5568H46.0028V19.0924H49.1634C49.7552 19.0924 50.2429 18.9906 50.6264 18.787C51.0147 18.5786 51.3035 18.2922 51.4929 17.9276C51.687 17.5583 51.7841 17.1345 51.7841 16.6563C51.7841 16.1733 51.687 15.7519 51.4929 15.3921C51.3035 15.0275 51.0147 14.7458 50.6264 14.5469C50.2382 14.3433 49.7457 14.2415 49.1491 14.2415H47.0753V26.2727H44Z" fill="#050220"/>
<path d="M59.4766 26.2727H56.1812L61.2025 11.7273H65.1656L70.1798 26.2727H66.8843L63.2408 15.0512H63.1272L59.4766 26.2727ZM59.2707 20.5554H67.0548V22.956H59.2707V20.5554Z" fill="#050220"/>
<path d="M71.2938 11.7273H74.7384L78.0552 17.9915H78.1972L81.514 11.7273H84.9586L79.6532 21.1307V26.2727H76.5992V21.1307L71.2938 11.7273Z" fill="#050220"/>
<path d="M93.4945 26.2727H88.3383V11.7273H93.5371C95.0002 11.7273 96.2597 12.0185 97.3156 12.6009C98.3714 13.1785 99.1835 14.0095 99.7516 15.0938C100.325 16.1781 100.611 17.4754 100.611 18.9858C100.611 20.501 100.325 21.8031 99.7516 22.8921C99.1835 23.9811 98.3667 24.8168 97.3013 25.3992C96.2407 25.9816 94.9718 26.2727 93.4945 26.2727ZM91.4136 23.6378H93.3667C94.2758 23.6378 95.0405 23.4768 95.6607 23.1549C96.2857 22.8281 96.7545 22.3239 97.067 21.6421C97.3842 20.9555 97.5428 20.0701 97.5428 18.9858C97.5428 17.911 97.3842 17.0327 97.067 16.3509C96.7545 15.6691 96.2881 15.1672 95.6678 14.8452C95.0476 14.5232 94.2829 14.3622 93.3738 14.3622H91.4136V23.6378Z" fill="#050220"/>
<path d="M107.664 11.7273V26.2727H104.589V11.7273H107.664Z" fill="#050220"/>
<path d="M114.402 26.2727H111.106L116.127 11.7273H120.091L125.105 26.2727H121.809L118.166 15.0512H118.052L114.402 26.2727ZM114.196 20.5554H121.98V22.956H114.196V20.5554Z" fill="#050220"/>
<path d="M128.555 26.2727V11.7273H131.631V23.7372H137.867V26.2727H128.555Z" fill="#050220"/>
<path d="M155.495 27.291L151.902 29.4785C149.786 29.4785 148.249 29.0781 147.292 28.2773C146.342 27.4831 145.867 26.2363 145.867 24.5371C145.867 23.3522 146.094 22.2812 146.55 21.3242C147.006 20.3672 147.722 19.459 148.699 18.5996C148.62 18.1178 148.445 17.877 148.171 17.877C148.067 17.877 147.986 17.9062 147.927 17.9648C147.849 18.0625 147.774 18.1504 147.703 18.2285L147.234 18.1309C147.234 17.2259 147.436 16.4772 147.839 15.8848C148.295 15.2207 148.933 14.8887 149.753 14.8887C150.482 14.8887 151.085 15.0905 151.56 15.4941C152.035 15.8978 152.273 16.4186 152.273 17.0566C152.273 17.4408 152.175 17.8053 151.98 18.1504C151.765 18.528 151.472 18.8079 151.101 18.9902C151.426 19.3678 151.824 19.6445 152.292 19.8203C152.611 19.9375 152.911 19.9961 153.191 19.9961H154.558V22.6523H153.191C152.26 22.6523 151.514 22.4701 150.954 22.1055C150.329 21.7018 149.766 20.9824 149.265 19.9473C148.536 20.429 147.973 20.9824 147.576 21.6074C147.178 22.2259 146.98 22.8574 146.98 23.502C146.98 24.6543 147.488 25.5072 148.503 26.0605C149.525 26.6204 151.134 26.9004 153.328 26.9004C153.666 26.9004 154.024 26.8971 154.402 26.8906C154.779 26.8841 155.124 26.8743 155.437 26.8613L155.495 27.291Z" fill="#5551FF"/>
<path d="M160.936 9.73242L159.764 11.9199L157.479 10.7285L158.729 8.52148L160.936 9.73242ZM162.352 22.6523H155.574V19.9961H161.434C161.434 19.4297 161.417 19.026 161.385 18.7852C161.333 18.4141 161.225 18.0918 161.063 17.8184C160.854 18.222 160.574 18.5312 160.223 18.7461C159.871 18.9609 159.497 19.0684 159.1 19.0684C158.579 19.0684 158.139 18.8958 157.781 18.5508C157.423 18.2057 157.244 17.7728 157.244 17.252C157.244 16.4837 157.479 15.5723 157.947 14.5176C158.462 13.3587 158.983 12.7793 159.51 12.7793C160.194 12.7793 160.838 13.375 161.444 14.5664C162.049 15.7578 162.352 17.0176 162.352 18.3457V22.6523ZM160.233 16.0801C160.057 15.7741 159.901 15.5625 159.764 15.4453C159.634 15.3216 159.49 15.2598 159.334 15.2598C159.139 15.2598 158.963 15.3477 158.807 15.5234C158.651 15.6992 158.572 15.9043 158.572 16.1387C158.572 16.2884 158.631 16.4154 158.748 16.5195C158.872 16.6172 159.028 16.666 159.217 16.666C159.367 16.666 159.516 16.6237 159.666 16.5391C159.822 16.4479 160.011 16.2949 160.233 16.0801Z" fill="#5551FF"/>
<path d="M170.907 22.6523H166.483C166.054 22.6523 165.725 22.5612 165.497 22.3789C165.217 22.1576 165.077 21.7962 165.077 21.2949C165.077 21.0085 165.09 20.6992 165.116 20.3672C165.149 20.0352 165.194 19.6999 165.253 19.3613L165.624 19.3418C165.676 19.5697 165.79 19.7357 165.966 19.8398C166.148 19.944 166.366 19.9961 166.62 19.9961H169.979C169.83 19.0391 169.569 18.2741 169.198 17.7012C168.892 17.2259 168.466 16.8158 167.919 16.4707L168.622 13.4238C169.468 14.0553 170.067 14.8691 170.419 15.8652C170.744 16.7832 170.907 18.0007 170.907 19.5176V22.6523Z" fill="#5551FF"/>
<path d="M192.862 22.6523H184.669C183.881 22.6523 183.357 22.6393 183.096 22.6133C182.842 22.5872 182.566 22.5189 182.266 22.4082C181.732 22.2259 181.293 21.8548 180.948 21.2949C180.603 20.735 180.43 20.11 180.43 19.4199C180.43 19.153 180.443 18.9154 180.469 18.707C180.495 18.4922 180.547 18.2415 180.626 17.9551C180.736 17.5319 180.86 17.1771 180.997 16.8906C181.133 16.6042 181.374 16.2168 181.719 15.7285L182.266 16.1191C181.986 16.6335 181.794 17.0404 181.69 17.3398C181.592 17.6393 181.544 17.9355 181.544 18.2285C181.544 18.5996 181.661 18.9349 181.895 19.2344C182.136 19.5273 182.448 19.7194 182.833 19.8105C183.06 19.8691 183.357 19.9147 183.721 19.9473C184.092 19.9798 184.48 19.9961 184.883 19.9961H191.944C191.762 19.5013 191.612 19.1497 191.495 18.9414C191.358 18.694 191.137 18.3783 190.831 17.9941L191.71 15.7285C192.198 16.4251 192.517 17.0632 192.667 17.6426C192.797 18.1504 192.862 18.8991 192.862 19.8887V22.6523ZM189.044 24.7129L187.872 26.9004L185.606 25.6699L186.778 23.4434L189.044 24.7129Z" fill="#5551FF"/>
<path d="M199.249 22.6523H193.878V19.9961H198.078L196.896 13.3652L196.271 12.9551C196.271 12.571 196.329 12.1836 196.447 11.793C196.596 11.2982 196.85 10.709 197.208 10.0254L197.658 10.2598C197.658 10.2988 197.645 10.403 197.619 10.5723C197.619 10.7871 197.755 10.9954 198.029 11.1973C198.27 11.3796 198.654 11.5814 199.181 11.8027C199.122 12.2194 199.035 12.6263 198.917 13.0234C198.807 13.4206 198.68 13.7754 198.536 14.0879L198.185 13.9512L199.249 19.9961V22.6523Z" fill="#5551FF"/>
<path d="M211.418 22.6523H200.266V19.9961H201.565C201.721 19.9961 202.16 19.7259 202.883 19.1855C203.124 19.0098 203.472 18.7363 203.928 18.3652C203.928 17.5645 203.899 16.8874 203.84 16.334C203.781 15.7806 203.687 15.2044 203.557 14.6055C203.524 14.4622 203.348 13.7559 203.029 12.4863L202.463 12.1348C202.613 11.4512 202.736 10.9629 202.834 10.6699C202.932 10.3704 203.121 9.90169 203.401 9.26367L203.85 9.43945C203.85 9.47852 203.837 9.56315 203.811 9.69336C203.811 9.92122 204.133 10.1914 204.778 10.5039C204.992 10.6081 205.315 10.7415 205.744 10.9043C205.679 11.4121 205.575 11.8874 205.432 12.3301C205.36 12.5514 205.23 12.8965 205.041 13.3652L204.69 13.248C204.891 14.1725 205.025 14.8561 205.09 15.2988C205.162 15.735 205.197 16.1257 205.197 16.4707V16.5781C205.197 16.7669 205.191 16.9167 205.178 17.0273C205.171 17.1315 205.145 17.2975 205.1 17.5254C205.438 17.278 205.78 17.0306 206.125 16.7832C206.653 16.4121 207.125 16.1126 207.541 15.8848C208.088 15.5853 208.505 15.4355 208.791 15.4355C209.559 15.4355 210.175 15.6341 210.637 16.0312C211.158 16.4805 211.418 17.1283 211.418 17.9746V22.6523ZM210.061 19C210.061 18.7721 209.82 18.5605 209.338 18.3652C208.856 18.1634 208.433 18.0625 208.069 18.0625C207.639 18.0625 207.154 18.2025 206.613 18.4824C206.08 18.7559 205.302 19.2604 204.279 19.9961H206.838C208.986 19.9961 210.061 19.6641 210.061 19Z" fill="#5551FF"/>
</svg>
