<svg width="215" height="37" viewBox="0 0 215 37" fill="none" xmlns="http://www.w3.org/2000/svg">
<path fill-rule="evenodd" clip-rule="evenodd" d="M30.7874 23.8328C32.2035 27.5173 32.2066 30.6946 30.458 32.5098C26.9155 36.1881 17.5288 32.883 9.49208 25.1274C1.45582 17.3718 -2.18753 8.10316 1.35492 4.42491C3.66522 2.02607 8.46037 2.59808 13.7462 5.4362L12.106 6.42469C9.26261 5.33118 6.87999 5.30481 5.62685 6.60612C3.10986 9.21946 6.10543 16.1983 12.318 22.1937C18.5306 28.189 25.6075 30.9301 28.1245 28.3168C28.8789 27.5334 29.1379 26.3568 28.9633 24.9326L30.7874 23.8332V23.8328Z" fill="#5551FF"/>
<path d="M8.02645 15.4373L27.5245 3.68752L26.2128 1.50675C25.6227 0.52541 24.3378 0.205893 23.3574 0.796665L6.05768 11.2219C6.22554 11.8015 6.42956 12.3333 6.60501 12.7417C6.99608 13.6524 7.47868 14.5556 8.02645 15.4373Z" fill="#5551FF"/>
<path d="M35.7036 17.2873L30.0522 7.89038L10.989 19.3778C11.6462 20.1232 12.3252 20.8288 13.0024 21.4822C15.5011 23.8935 18.7038 26.2995 21.9628 27.5619C22.0999 27.6151 22.2508 27.671 22.4124 27.7268L34.9942 20.1451C35.9746 19.5543 36.2938 18.2682 35.7036 17.2869V17.2873Z" fill="#050220"/>
<path d="M8.80774 25.8383C7.87023 24.9338 6.94075 23.9583 6.04744 22.9282C5.93181 23.4484 5.99029 24.0436 5.96395 24.5419C5.81708 27.3063 5.66083 30.0702 5.50904 32.8342C5.45457 33.8244 5.18582 35.3639 6.03181 36.1209C6.68405 36.7046 7.78273 36.5379 8.46041 36.1352C11.193 34.4889 13.9257 32.8422 16.6578 31.1955L16.1123 31.5244C13.4399 29.9062 10.9426 27.8984 8.80774 25.8387V25.8383Z" fill="#050220"/>
<path opacity="0.62" d="M17.0757 30.9434C16.9364 31.0274 16.7971 31.1114 16.6578 31.195L17.0757 30.9434Z" fill="#050220"/>
<path d="M6.60015 22.0568C6.47604 22.1489 6.3872 22.2204 6.36086 22.2521C6.19791 22.4479 6.10327 22.6793 6.04791 22.9278C6.94123 23.9583 7.8707 24.9334 8.80821 25.8379C10.9431 27.898 13.4404 29.9053 16.1128 31.5235L16.6583 31.1946C16.7976 31.1106 16.9369 31.0266 17.0762 30.943C14.5601 29.4737 11.9627 27.5105 9.4926 25.1269C8.45285 24.1237 7.48677 23.0949 6.60015 22.0564V22.0568Z" fill="#050220"/>
<path opacity="0.62" d="M6.60015 22.0568C6.47604 22.1489 6.3872 22.2204 6.36086 22.2521C6.19791 22.4479 6.10327 22.6793 6.04791 22.9278C6.94123 23.9583 7.8707 24.9334 8.80821 25.8379C10.9431 27.898 13.4404 29.9053 16.1128 31.5235L16.6583 31.1946C16.7976 31.1106 16.9369 31.0266 17.0762 30.943C14.5601 29.4737 11.9627 27.5105 9.4926 25.1269C8.45285 24.1237 7.48677 23.0949 6.60015 22.0564V22.0568Z" fill="#050220"/>
<path opacity="0.62" d="M1.40496 14.0256L0.922363 14.3161L1.40496 14.0256Z" fill="#050220"/>
<path fill-rule="evenodd" clip-rule="evenodd" d="M26.6561 16.9594L30.2209 14.8112C30.8093 14.4569 31.5803 14.6486 31.9343 15.2371L33.1745 17.299C33.5285 17.888 33.337 18.6598 32.7491 19.0141L29.1843 21.1623C28.5959 21.5166 27.8249 21.3249 27.4709 20.7364L26.2307 18.6745C25.8767 18.0855 26.0682 17.3138 26.6561 16.9594Z" fill="white"/>
<path d="M44 25.7727V11.2273H49.7386C50.8419 11.2273 51.7817 11.438 52.5582 11.8594C53.3348 12.2761 53.9266 12.8561 54.3338 13.5995C54.7457 14.3381 54.9517 15.1904 54.9517 16.1563C54.9517 17.1222 54.7434 17.9745 54.3267 18.7131C53.91 19.4517 53.3063 20.027 52.5156 20.4389C51.7296 20.8509 50.7779 21.0568 49.6605 21.0568H46.0028V18.5924H49.1634C49.7552 18.5924 50.2429 18.4906 50.6264 18.287C51.0147 18.0786 51.3035 17.7922 51.4929 17.4276C51.687 17.0583 51.7841 16.6345 51.7841 16.1563C51.7841 15.6733 51.687 15.2519 51.4929 14.8921C51.3035 14.5275 51.0147 14.2458 50.6264 14.0469C50.2382 13.8433 49.7457 13.7415 49.1491 13.7415H47.0753V25.7727H44Z" fill="#050220"/>
<path d="M59.4766 25.7727H56.1812L61.2025 11.2273H65.1656L70.1798 25.7727H66.8843L63.2408 14.5512H63.1272L59.4766 25.7727ZM59.2707 20.0554H67.0548V22.456H59.2707V20.0554Z" fill="#050220"/>
<path d="M71.2938 11.2273H74.7384L78.0552 17.4915H78.1972L81.514 11.2273H84.9586L79.6532 20.6307V25.7727H76.5992V20.6307L71.2938 11.2273Z" fill="#050220"/>
<path d="M93.4945 25.7727H88.3383V11.2273H93.5371C95.0002 11.2273 96.2597 11.5185 97.3156 12.1009C98.3714 12.6785 99.1835 13.5095 99.7516 14.5938C100.325 15.6781 100.611 16.9754 100.611 18.4858C100.611 20.001 100.325 21.3031 99.7516 22.3921C99.1835 23.4811 98.3667 24.3168 97.3013 24.8992C96.2407 25.4816 94.9718 25.7727 93.4945 25.7727ZM91.4136 23.1378H93.3667C94.2758 23.1378 95.0405 22.9768 95.6607 22.6549C96.2857 22.3281 96.7545 21.8239 97.067 21.1421C97.3842 20.4555 97.5428 19.5701 97.5428 18.4858C97.5428 17.411 97.3842 16.5327 97.067 15.8509C96.7545 15.1691 96.2881 14.6672 95.6678 14.3452C95.0476 14.0232 94.2829 13.8622 93.3738 13.8622H91.4136V23.1378Z" fill="#050220"/>
<path d="M107.664 11.2273V25.7727H104.589V11.2273H107.664Z" fill="#050220"/>
<path d="M114.402 25.7727H111.106L116.127 11.2273H120.091L125.105 25.7727H121.809L118.166 14.5512H118.052L114.402 25.7727ZM114.196 20.0554H121.98V22.456H114.196V20.0554Z" fill="#050220"/>
<path d="M128.555 25.7727V11.2273H131.631V23.2372H137.867V25.7727H128.555Z" fill="#050220"/>
<path d="M155.495 26.791L151.902 28.9785C149.786 28.9785 148.249 28.5781 147.292 27.7773C146.342 26.9831 145.867 25.7363 145.867 24.0371C145.867 22.8522 146.094 21.7812 146.55 20.8242C147.006 19.8672 147.722 18.959 148.699 18.0996C148.62 17.6178 148.445 17.377 148.171 17.377C148.067 17.377 147.986 17.4062 147.927 17.4648C147.849 17.5625 147.774 17.6504 147.703 17.7285L147.234 17.6309C147.234 16.7259 147.436 15.9772 147.839 15.3848C148.295 14.7207 148.933 14.3887 149.753 14.3887C150.482 14.3887 151.085 14.5905 151.56 14.9941C152.035 15.3978 152.273 15.9186 152.273 16.5566C152.273 16.9408 152.175 17.3053 151.98 17.6504C151.765 18.028 151.472 18.3079 151.101 18.4902C151.426 18.8678 151.824 19.1445 152.292 19.3203C152.611 19.4375 152.911 19.4961 153.191 19.4961H154.558V22.1523H153.191C152.26 22.1523 151.514 21.9701 150.954 21.6055C150.329 21.2018 149.766 20.4824 149.265 19.4473C148.536 19.929 147.973 20.4824 147.576 21.1074C147.178 21.7259 146.98 22.3574 146.98 23.002C146.98 24.1543 147.488 25.0072 148.503 25.5605C149.525 26.1204 151.134 26.4004 153.328 26.4004C153.666 26.4004 154.024 26.3971 154.402 26.3906C154.779 26.3841 155.124 26.3743 155.437 26.3613L155.495 26.791Z" fill="#5551FF"/>
<path d="M160.936 9.23242L159.764 11.4199L157.479 10.2285L158.729 8.02148L160.936 9.23242ZM162.352 22.1523H155.574V19.4961H161.434C161.434 18.9297 161.417 18.526 161.385 18.2852C161.333 17.9141 161.225 17.5918 161.063 17.3184C160.854 17.722 160.574 18.0312 160.223 18.2461C159.871 18.4609 159.497 18.5684 159.1 18.5684C158.579 18.5684 158.139 18.3958 157.781 18.0508C157.423 17.7057 157.244 17.2728 157.244 16.752C157.244 15.9837 157.479 15.0723 157.947 14.0176C158.462 12.8587 158.983 12.2793 159.51 12.2793C160.194 12.2793 160.838 12.875 161.444 14.0664C162.049 15.2578 162.352 16.5176 162.352 17.8457V22.1523ZM160.233 15.5801C160.057 15.2741 159.901 15.0625 159.764 14.9453C159.634 14.8216 159.49 14.7598 159.334 14.7598C159.139 14.7598 158.963 14.8477 158.807 15.0234C158.651 15.1992 158.572 15.4043 158.572 15.6387C158.572 15.7884 158.631 15.9154 158.748 16.0195C158.872 16.1172 159.028 16.166 159.217 16.166C159.367 16.166 159.516 16.1237 159.666 16.0391C159.822 15.9479 160.011 15.7949 160.233 15.5801Z" fill="#5551FF"/>
<path d="M170.907 22.1523H166.483C166.054 22.1523 165.725 22.0612 165.497 21.8789C165.217 21.6576 165.077 21.2962 165.077 20.7949C165.077 20.5085 165.09 20.1992 165.116 19.8672C165.149 19.5352 165.194 19.1999 165.253 18.8613L165.624 18.8418C165.676 19.0697 165.79 19.2357 165.966 19.3398C166.148 19.444 166.366 19.4961 166.62 19.4961H169.979C169.83 18.5391 169.569 17.7741 169.198 17.2012C168.892 16.7259 168.466 16.3158 167.919 15.9707L168.622 12.9238C169.468 13.5553 170.067 14.3691 170.419 15.3652C170.744 16.2832 170.907 17.5007 170.907 19.0176V22.1523Z" fill="#5551FF"/>
<path d="M192.862 22.1523H184.669C183.881 22.1523 183.357 22.1393 183.096 22.1133C182.842 22.0872 182.566 22.0189 182.266 21.9082C181.732 21.7259 181.293 21.3548 180.948 20.7949C180.603 20.235 180.43 19.61 180.43 18.9199C180.43 18.653 180.443 18.4154 180.469 18.207C180.495 17.9922 180.547 17.7415 180.626 17.4551C180.736 17.0319 180.86 16.6771 180.997 16.3906C181.133 16.1042 181.374 15.7168 181.719 15.2285L182.266 15.6191C181.986 16.1335 181.794 16.5404 181.69 16.8398C181.592 17.1393 181.544 17.4355 181.544 17.7285C181.544 18.0996 181.661 18.4349 181.895 18.7344C182.136 19.0273 182.448 19.2194 182.833 19.3105C183.06 19.3691 183.357 19.4147 183.721 19.4473C184.092 19.4798 184.48 19.4961 184.883 19.4961H191.944C191.762 19.0013 191.612 18.6497 191.495 18.4414C191.358 18.194 191.137 17.8783 190.831 17.4941L191.71 15.2285C192.198 15.9251 192.517 16.5632 192.667 17.1426C192.797 17.6504 192.862 18.3991 192.862 19.3887V22.1523ZM189.044 24.2129L187.872 26.4004L185.606 25.1699L186.778 22.9434L189.044 24.2129Z" fill="#5551FF"/>
<path d="M199.249 22.1523H193.878V19.4961H198.078L196.896 12.8652L196.271 12.4551C196.271 12.071 196.329 11.6836 196.447 11.293C196.596 10.7982 196.85 10.209 197.208 9.52539L197.658 9.75977C197.658 9.79883 197.645 9.90299 197.619 10.0723C197.619 10.2871 197.755 10.4954 198.029 10.6973C198.27 10.8796 198.654 11.0814 199.181 11.3027C199.122 11.7194 199.035 12.1263 198.917 12.5234C198.807 12.9206 198.68 13.2754 198.536 13.5879L198.185 13.4512L199.249 19.4961V22.1523Z" fill="#5551FF"/>
<path d="M211.418 22.1523H200.266V19.4961H201.565C201.721 19.4961 202.16 19.2259 202.883 18.6855C203.124 18.5098 203.472 18.2363 203.928 17.8652C203.928 17.0645 203.899 16.3874 203.84 15.834C203.781 15.2806 203.687 14.7044 203.557 14.1055C203.524 13.9622 203.348 13.2559 203.029 11.9863L202.463 11.6348C202.613 10.9512 202.736 10.4629 202.834 10.1699C202.932 9.87044 203.121 9.40169 203.401 8.76367L203.85 8.93945C203.85 8.97852 203.837 9.06315 203.811 9.19336C203.811 9.42122 204.133 9.69141 204.778 10.0039C204.992 10.1081 205.315 10.2415 205.744 10.4043C205.679 10.9121 205.575 11.3874 205.432 11.8301C205.36 12.0514 205.23 12.3965 205.041 12.8652L204.69 12.748C204.891 13.6725 205.025 14.3561 205.09 14.7988C205.162 15.235 205.197 15.6257 205.197 15.9707V16.0781C205.197 16.2669 205.191 16.4167 205.178 16.5273C205.171 16.6315 205.145 16.7975 205.1 17.0254C205.438 16.778 205.78 16.5306 206.125 16.2832C206.653 15.9121 207.125 15.6126 207.541 15.3848C208.088 15.0853 208.505 14.9355 208.791 14.9355C209.559 14.9355 210.175 15.1341 210.637 15.5312C211.158 15.9805 211.418 16.6283 211.418 17.4746V22.1523ZM210.061 18.5C210.061 18.2721 209.82 18.0605 209.338 17.8652C208.856 17.6634 208.433 17.5625 208.069 17.5625C207.639 17.5625 207.154 17.7025 206.613 17.9824C206.08 18.2559 205.302 18.7604 204.279 19.4961H206.838C208.986 19.4961 210.061 19.1641 210.061 18.5Z" fill="#5551FF"/>
</svg>
